<?xml version="1.0" encoding="UTF-8"?>
<svg version="1.1" xmlns="http://www.w3.org/2000/svg" width="781" height="781">
<path d="M0 0 C0.80868731 -0.00297112 1.61737462 -0.00594224 2.4505676 -0.0090034 C5.15328409 -0.01765549 7.85595608 -0.01919584 10.5586853 -0.02069092 C12.50113519 -0.02532248 14.44358417 -0.0303476 16.3860321 -0.03573608 C21.66685086 -0.04885119 26.9476569 -0.05530624 32.2284894 -0.05974674 C35.54382145 -0.06268594 38.85915011 -0.06679287 42.17448044 -0.07125092 C52.59162492 -0.08493897 63.00876155 -0.09459267 73.42591441 -0.09845281 C85.36275128 -0.10290205 97.29947184 -0.12029675 109.23627341 -0.1494534 C118.50991875 -0.1712985 127.78353198 -0.18116947 137.0572027 -0.18249393 C142.57031189 -0.18352815 148.08331202 -0.18912979 153.59639359 -0.20731354 C218.04570158 -0.40774619 294.28548278 0.7867757 343.8140564 48.14044189 C344.8246814 48.92419189 345.8353064 49.70794189 346.8765564 50.51544189 C351.90355256 55.00765124 357.65382409 60.65974497 359.8140564 67.14044189 C360.8040564 67.47044189 361.7940564 67.80044189 362.8140564 68.14044189 C363.7710974 69.6785435 364.71156609 71.22952258 365.5640564 72.82794189 C367.71950009 76.81551272 370.09949103 80.6750877 372.4234314 84.56622314 C373.8140564 87.14044189 373.8140564 87.14044189 373.8140564 89.14044189 C374.8040564 89.47044189 375.7940564 89.80044189 376.8140564 90.14044189 C376.8140564 90.80044189 376.8140564 91.46044189 376.8140564 92.14044189 C377.31571494 93.57367379 377.85922494 94.99237838 378.4234314 96.40216064 C382.53719854 106.82668788 386.59055808 117.12118678 388.8140564 128.14044189 C389.08475952 129.45504395 389.08475952 129.45504395 389.3609314 130.79620361 C398.34750996 176.40460783 393.73637635 225.66786348 368.35702515 265.48028564 C363.8201001 272.22671677 358.34197568 278.20292069 352.8140564 284.14044189 C352.12207153 284.89816895 352.12207153 284.89816895 351.41610718 285.67120361 C340.87020229 297.155565 328.67440489 305.93917286 314.9390564 313.20294189 C314.08392456 313.65604736 313.22879272 314.10915283 312.3477478 314.57598877 C306.66041348 317.47407755 300.98354884 319.51459725 294.8140564 321.14044189 C293.76710012 325.41551336 293.49508514 327.49424365 295.47421265 331.50372314 C297.63867602 335.05746779 300.23737768 338.1669064 303.0015564 341.26544189 C308.44939273 347.5616894 313.32215106 354.12171575 317.8140564 361.14044189 C318.17225464 361.69989502 318.53045288 362.25934814 318.89950562 362.83575439 C325.33461815 373.04495027 330.76722927 383.77908439 336.2515564 394.51544189 C349.92291813 422.82932241 349.92291813 422.82932241 369.10702515 447.40216064 C371.8140564 450.14044189 371.8140564 450.14044189 371.8140564 452.14044189 C372.35932983 452.39567627 372.90460327 452.65091064 373.46640015 452.91387939 C376.23206279 454.35883459 378.76538783 456.05643718 381.3765564 457.76544189 C391.41459663 464.12565694 402.63372782 468.16000226 413.6890564 472.39044189 C420.34351329 475.08226213 423.20411903 478.20099701 426.0171814 484.72637939 C428.28981658 491.61112716 428.00022635 498.69445338 427.99935913 505.86114502 C428.00153549 507.87112946 428.01969993 509.88055496 428.03866577 511.89044189 C428.06827877 531.71140886 428.06827877 531.71140886 421.7515564 539.27325439 C409.42265601 551.15473501 386.67823096 560.3584397 369.53671265 560.90216064 C368.96823608 560.98079346 368.39975952 561.05942627 367.8140564 561.14044189 C367.4840564 561.80044189 367.1540564 562.46044189 366.8140564 563.14044189 C330.44888602 564.92848739 296.46569453 564.24811592 267.9781189 538.58575439 C251.78143101 523.90113582 251.78143101 523.90113582 246.0406189 515.70684814 C244.88086913 513.99530597 244.88086913 513.99530597 242.8140564 513.14044189 C241.9460173 511.57797151 241.08034192 510.01415719 240.22421265 508.44512939 C237.73792318 504.38166462 234.74735804 500.67539535 231.8374939 496.90997314 C229.8140564 494.14044189 229.8140564 494.14044189 228.7281189 491.90216064 C227.81253501 489.79052802 227.81253501 489.79052802 224.8140564 488.14044189 C224.8140564 487.48044189 224.8140564 486.82044189 224.8140564 486.14044189 C224.3190564 485.31544189 223.8240564 484.49044189 223.3140564 483.64044189 C221.8140564 481.14044189 221.8140564 481.14044189 221.8140564 479.14044189 C221.1540564 479.14044189 220.4940564 479.14044189 219.8140564 479.14044189 C219.8140564 478.15044189 219.8140564 477.16044189 219.8140564 476.14044189 C219.1540564 475.81044189 218.4940564 475.48044189 217.8140564 475.14044189 C214.8140564 469.71736497 214.8140564 469.71736497 214.8140564 467.14044189 C213.8240564 466.81044189 212.8340564 466.48044189 211.8140564 466.14044189 C211.8140564 465.48044189 211.8140564 464.82044189 211.8140564 464.14044189 C210.68229957 461.94621948 209.52260366 459.79156269 208.3140564 457.64044189 C204.8140564 451.41071216 204.8140564 451.41071216 204.8140564 449.14044189 C203.8240564 448.81044189 202.8340564 448.48044189 201.8140564 448.14044189 C201.8140564 447.15044189 201.8140564 446.16044189 201.8140564 445.14044189 C201.03630636 443.42661414 200.19565553 441.74073582 199.3140564 440.07794189 C196.8140564 435.34877523 196.8140564 435.34877523 196.8140564 433.14044189 C195.8240564 432.81044189 194.8340564 432.48044189 193.8140564 432.14044189 C193.8140564 431.15044189 193.8140564 430.16044189 193.8140564 429.14044189 C193.03630636 427.42661414 192.19565553 425.74073582 191.3140564 424.07794189 C188.8140564 419.34877523 188.8140564 419.34877523 188.8140564 417.14044189 C188.1540564 416.81044189 187.4940564 416.48044189 186.8140564 416.14044189 C185.93671888 414.25257372 185.13541952 412.32897075 184.3765564 410.39044189 C183.20282383 407.402759 182.10148053 404.60223137 180.40390015 401.87481689 C178.98530573 399.43497392 178.00014336 397.17047092 176.98983765 394.54669189 C174.70954277 388.70255694 171.91087233 383.19291016 169.0015564 377.64044189 C168.50591187 376.67235596 168.01026733 375.70427002 167.49960327 374.70684814 C161.804575 363.78588017 155.21284113 352.17185857 143.6890564 346.64044189 C138.5810693 345.75209631 133.227508 345.07554495 128.8140564 348.14044189 C125.79264571 354.31648679 125.39585657 360.45623867 125.48934937 367.21246338 C125.49104645 368.66656931 125.49104645 368.66656931 125.49277782 370.15005112 C125.49985972 373.35410266 125.52812121 376.55760549 125.5562439 379.76153564 C125.56496484 382.03719077 125.5722119 384.31285196 125.57807922 386.58851624 C125.59284215 391.4168931 125.61618202 396.24511972 125.64624023 401.07342529 C125.69189132 408.58826297 125.7126519 416.10302519 125.72689819 423.61798096 C125.72930102 424.85921408 125.73170385 426.1004472 125.7341795 427.37929344 C125.73893175 429.87982414 125.74359071 432.38035503 125.74815559 434.88088608 C125.75545786 438.61846027 125.76431152 442.35602776 125.77363586 446.09359741 C125.81938899 464.81587325 125.8550392 483.5373036 125.66348267 502.25888062 C125.63634452 504.99144779 125.62145021 507.72363136 125.61795044 510.45632935 C125.60898092 514.16939008 125.56950371 517.88084123 125.52108765 521.59356689 C125.52503036 522.63640335 125.52897308 523.67923981 125.53303528 524.75367737 C125.37258686 532.67040715 123.3137379 539.64076039 117.5953064 545.35919189 C104.26370372 552.84680436 88.6860359 551.43802339 73.87265015 551.40606689 C71.65553241 551.40741699 69.43841495 551.40936038 67.22129822 551.41186523 C62.59439247 551.41479968 57.96756439 551.41057278 53.34066772 551.40118408 C47.43783868 551.38978394 41.53519145 551.3963634 35.63236904 551.40832901 C31.06048739 551.41558741 26.4886482 551.41324157 21.91676521 551.40807343 C19.74126221 551.40674827 17.56575524 551.40834445 15.39025688 551.41303253 C-15.84987127 551.46560194 -15.84987127 551.46560194 -25.1859436 543.14044189 C-30.17877711 536.99541604 -31.48671593 531.00405551 -31.45044994 523.22895527 C-31.4547456 522.44644434 -31.45904126 521.66393341 -31.46346709 520.85771003 C-31.47545314 518.23146008 -31.47325752 515.60541492 -31.47114563 512.97914124 C-31.47686441 511.07832419 -31.48345273 509.1775096 -31.49083644 507.27669829 C-31.50860259 502.04872824 -31.51394449 496.82080746 -31.51727688 491.59281099 C-31.52302309 485.95398646 -31.54020998 480.31519541 -31.55596924 474.6763916 C-31.58504562 463.61765961 -31.60346959 452.55893401 -31.61830934 441.50017474 C-31.63601099 428.58975231 -31.66404059 415.67935848 -31.69244156 402.76895591 C-31.74436814 378.99021281 -31.78572883 355.21146372 -31.82221185 331.43269273 C-31.85543124 309.81466812 -31.89615994 288.19667149 -31.94400024 266.57867432 C-31.94705787 265.19580739 -31.9501154 263.81294046 -31.95317283 262.43007354 C-31.95468477 261.74636061 -31.95619672 261.06264768 -31.95775448 260.35821617 C-31.96536586 256.91512262 -31.97296416 253.47202904 -31.9805479 250.02893543 C-31.98204562 249.34940254 -31.98354333 248.66986966 -31.98508643 247.96974486 C-32.03354171 225.93570514 -32.07377631 203.90165014 -32.11353057 181.8675932 C-32.12986878 172.90837111 -32.14836502 163.949155 -32.16760826 154.98993874 C-32.19105205 144.01417392 -32.2102926 133.03841003 -32.22464117 122.06262944 C-32.2320134 116.48169197 -32.24092376 110.90077088 -32.25469017 105.3198452 C-32.30445666 84.56829107 -32.28948 63.8166261 -31.91877762 43.0676805 C-31.88680181 41.19993301 -31.85932171 39.33210211 -31.83675685 37.46421722 C-31.8039104 34.89239636 -31.75241617 32.32160205 -31.69578266 29.75020885 C-31.68955706 29.00758358 -31.68333146 28.2649583 -31.6769172 27.49982923 C-31.44051083 18.96342948 -28.95707726 12.0236108 -23.08047485 5.80059814 C-16.60330583 0.12472838 -8.22999962 -0.0095358 0 0 Z M127.8140564 124.14044189 C124.14134057 129.64951563 124.66076702 135.44037765 124.65292358 141.8526001 C124.64795868 142.82559052 124.64299377 143.79858093 124.63787842 144.80105591 C124.62329386 148.01445223 124.61646115 151.22779919 124.6109314 154.44122314 C124.60517715 156.6793569 124.59941945 158.91749065 124.59365845 161.15562439 C124.58315918 165.84709909 124.5773094 170.53855671 124.57382202 175.2300415 C124.56833783 181.23217949 124.54430668 187.23409057 124.51585007 193.23615742 C124.49719828 197.85935622 124.49201674 202.48250062 124.49048615 207.10573387 C124.48746514 209.31804839 124.47945531 211.53036207 124.46630096 213.74263954 C124.44918668 216.8419673 124.45113395 219.94074385 124.45761108 223.0401001 C124.4483963 223.94790726 124.43918152 224.85571442 124.4296875 225.79103088 C124.473189 232.45863939 125.34912768 238.30203913 129.8765564 243.51544189 C137.2017875 247.5676974 145.94086603 247.49874727 154.1265564 247.45294189 C155.68599976 247.44665771 155.68599976 247.44665771 157.27694702 247.44024658 C182.47384932 247.08029083 210.96924 242.40741525 230.1968689 224.83575439 C238.89547921 215.71692136 244.48482696 202.84869829 244.8140564 190.14044189 C244.86432983 188.97126221 244.91460327 187.80208252 244.96640015 186.59747314 C245.43114432 171.31317574 242.78634625 156.70150715 233.0640564 144.39044189 C232.3215564 143.64794189 231.5790564 142.90544189 230.8140564 142.14044189 C230.1540564 142.14044189 229.4940564 142.14044189 228.8140564 142.14044189 C228.58202515 141.56036377 228.3499939 140.98028564 228.1109314 140.38262939 C222.25260549 130.25407799 206.76723186 125.45414977 196.1890564 122.39044189 C179.22642857 118.18687523 142.50183883 111.04052783 127.8140564 124.14044189 Z " fill="#ED45AD" transform="translate(88.18594360351563,195.85955810546875)"/>
<path d="M0 0 C4.82665852 0.52180092 8.81282657 1.78371899 12.23046875 5.28515625 C15.72003784 8.70581988 19.54701708 11.20894858 23.62304688 13.86914062 C25.11428016 14.86613659 26.56166827 15.92809539 28 17 C28 17.66 28 18.32 28 19 C28.56976562 19.26039062 29.13953125 19.52078125 29.7265625 19.7890625 C34.26008626 22.20382602 38.05864097 25.73549259 42 29 C42.78624756 29.64654541 42.78624756 29.64654541 43.58837891 30.30615234 C57.97201556 42.17829281 70.92145085 54.97138772 82 70 C82.96486328 71.27230469 82.96486328 71.27230469 83.94921875 72.5703125 C103.91419444 99.75857152 108.43026438 130.84514404 104.71875 163.67529297 C104.10320005 169.29664676 103.80759693 174.84491922 103.8125 180.5 C103.8115332 181.55030396 103.8115332 181.55030396 103.81054688 182.62182617 C103.84609454 185.88453665 104.00490798 188.87939144 105 192 C109.89596212 193.36929323 113.70187004 194.35203524 118.6875 193 C122.91532326 190.44735199 127.73231198 187.53537604 130 183 C130.66 183 131.32 183 132 183 C132.19335938 182.40832031 132.38671875 181.81664062 132.5859375 181.20703125 C133.12228606 179.57939924 133.666868 177.95446214 134.21875 176.33203125 C134.80994576 174.5673119 135.35388797 172.78666982 135.875 171 C137 169 137 169 139.625 168.1875 C140.40875 168.125625 141.1925 168.06375 142 168 C144.79689141 172.0390862 145.82913743 175.91514079 146.625 180.6875 C146.74979736 181.40301025 146.87459473 182.11852051 147.00317383 182.85571289 C149.43766608 197.14765247 152.79264906 219.41470188 146 233 C146.66 233.33 147.32 233.66 148 234 C147.34 234.33 146.68 234.66 146 235 C144.98368603 237.78368694 144.06287545 240.54712477 143.1875 243.375 C141.13195753 249.81306605 138.86637065 255.95154659 135.8828125 262.03125 C134.86361338 263.9445505 134.86361338 263.9445505 135 266 C133.34511146 267.67836214 131.67600351 269.34272278 130 271 C128.38301241 273.06674573 126.80654068 275.13976528 125.25 277.25 C113.22647264 293.08977757 98.11616121 304.03778044 80 312 C79.3704541 312.28214355 78.7409082 312.56428711 78.09228516 312.85498047 C58.68366611 321.38552347 37.0032567 323.49000175 16 323 C14.75347656 322.97164063 13.50695312 322.94328125 12.22265625 322.9140625 C-2.82226673 322.28280699 -23.74289921 320.77138417 -34.7578125 309.14453125 C-36.19280523 306.81153992 -37.08383869 304.58639384 -38 302 C-38.52553432 300.60657938 -39.05162534 299.21336866 -39.578125 297.8203125 C-44.05981633 285.68587265 -44.05981633 285.68587265 -45 280 C-45.66 280 -46.32 280 -47 280 C-47.0825 279.360625 -47.165 278.72125 -47.25 278.0625 C-48.41729209 273.2960573 -50.07612526 267.92387474 -53.60546875 264.39453125 C-55 263 -55 263 -55.4375 260.3125 C-56.14972155 256.11830641 -57.72701055 252.59389653 -60 249 C-60.66 248.67 -61.32 248.34 -62 248 C-62 246.68 -62 245.36 -62 244 C-62.66 243.67 -63.32 243.34 -64 243 C-65.05659825 241.05046138 -66.04756658 239.06499127 -67 237.0625 C-69.01949369 232.69291131 -69.01949369 232.69291131 -72 229 C-73.84595064 226.07724482 -75.49766316 223.11198346 -77 220 C-77.95865509 217.66924071 -77.95865509 217.66924071 -81 216 C-81.6875 212.875 -81.6875 212.875 -82 210 C-82.99 209.67 -83.98 209.34 -85 209 C-85 208.01 -85 207.02 -85 206 C-85.23769206 203.8817921 -85.23769206 203.8817921 -86 202 C-86.99 201.67 -87.98 201.34 -89 201 C-89 200.01 -89 199.02 -89 198 C-89.58136289 196.06964944 -90.21289149 194.15416607 -90.875 192.25 C-96.5409623 175.61249232 -97.30084165 160.21153146 -94 143 C-93.34 143 -92.68 143 -92 143 C-92.08121094 142.34128906 -92.16242188 141.68257812 -92.24609375 141.00390625 C-91.89668335 136.73888091 -90.09398409 133.65463071 -88.0625 129.9375 C-87.45015503 128.80586426 -87.45015503 128.80586426 -86.82543945 127.65136719 C-80.77294593 116.71618005 -72.96908521 107.63010788 -64.40625 98.6171875 C-62.01275636 96.25563654 -62.01275636 96.25563654 -61 94 C-58.65386819 92.46287916 -57.55436855 91.90760524 -54.75 92.375 C-54.1725 92.58125 -53.595 92.7875 -53 93 C-51.70477075 97.58311889 -52.28561375 101.74296352 -52.9375 106.375 C-54.64488335 116.34171758 -54.64488335 116.34171758 -52.5 125.9375 C-52.005 126.948125 -51.51 127.95875 -51 129 C-43.82300069 129.58587749 -39.91863507 127.39997617 -34.58203125 123.01171875 C-22.13151218 112.10852822 -22.13151218 112.10852822 -14 98 C-13.34 98 -12.68 98 -12 98 C-11.62875 96.453125 -11.62875 96.453125 -11.25 94.875 C-10.59979842 92.16582675 -9.70747658 90.56817972 -8.11328125 88.21484375 C4.90557164 68.40982356 5.54000405 40.48382959 1 18 C0.34853151 15.66237777 -0.31526605 13.32809543 -1 11 C-2.07291963 4.98362824 -2.07291963 4.98362824 -2 2 C-1.34 1.34 -0.68 0.68 0 0 Z " fill="#FD8636" transform="translate(546,21)"/>
<path d="M0 0 C2.4375 0.125 2.4375 0.125 5 1 C7.36905467 5.38075989 7.73915459 10.21272295 8.3671875 15.078125 C8.61582367 16.89844593 8.86452377 18.71875814 9.11328125 20.5390625 C9.49292894 23.37499674 9.86988273 26.21126555 10.24462891 29.04785156 C11.51010367 38.5648922 12.82662186 48.01661185 15.01953125 57.37109375 C15.17457123 58.03260437 15.32961121 58.69411499 15.48934937 59.37567139 C20.62374407 80.17348071 30.95896348 97.2758544 49.05566406 108.83789062 C64.69256508 118.18390379 82.85371469 121.99762551 100.53491211 125.30126953 C101.55979736 125.49446777 102.58468262 125.68766602 103.640625 125.88671875 C104.55360352 126.05389404 105.46658203 126.22106934 106.40722656 126.39331055 C109.10588527 127.02477636 111.50036728 127.8005839 114 129 C114.8125 131.125 114.8125 131.125 115 133 C111.25796209 136.56968652 107.14599413 136.99295119 102.23828125 137.83203125 C100.46026798 138.15940486 98.68227384 138.48688241 96.90429688 138.81445312 C94.13021163 139.31196741 91.3553885 139.80494001 88.57983398 140.29418945 C79.06989683 141.98482589 69.76299124 143.78639174 60.6328125 146.99609375 C59.96651321 147.23028519 59.30021393 147.46447662 58.61372375 147.70576477 C42.53387515 153.69120451 28.70899824 165.75003895 21.4453125 181.3359375 C12.73539397 201.48554774 10.03813049 223.77261434 7.12109375 245.359375 C6.99226807 246.31110596 6.86344238 247.26283691 6.73071289 248.2434082 C6.50208561 249.97498129 6.28301365 251.70785749 6.07592773 253.44213867 C5.42753149 258.44771583 4.19501778 262.44624765 2 267 C0.125 266.75 0.125 266.75 -2 266 C-4.36169736 262.44408586 -4.85922601 258.31877202 -5.5625 254.1875 C-5.75972656 253.05526001 -5.75972656 253.05526001 -5.9609375 251.90014648 C-6.95607333 245.90483005 -7.37506885 239.95913832 -7.69140625 233.890625 C-8.22156763 227.20656501 -9.45018651 220.64341825 -10.63574219 214.04931641 C-11.14141868 211.20437778 -11.6011337 208.35241543 -12.0625 205.5 C-12.37197749 203.66615403 -12.68436646 201.83279645 -13 200 C-13.16371094 199.03707031 -13.32742188 198.07414063 -13.49609375 197.08203125 C-13.74552734 195.71111328 -13.74552734 195.71111328 -14 194.3125 C-14.144375 193.50425781 -14.28875 192.69601562 -14.4375 191.86328125 C-14.623125 191.24839844 -14.80875 190.63351562 -15 190 C-15.66 189.67 -16.32 189.34 -17 189 C-17.60546875 187.1015625 -17.60546875 187.1015625 -18.1875 184.625 C-20.73704165 175.57152556 -26.12764241 167.24823839 -34 162 C-34.78375 161.195625 -35.5675 160.39125 -36.375 159.5625 C-39.33883469 156.66923281 -42.32331809 154.83834096 -46 153 C-46.6703125 152.64164063 -47.340625 152.28328125 -48.03125 151.9140625 C-55.03393928 148.257595 -61.99161712 145 -70 145 C-70 144.34 -70 143.68 -70 143 C-71.15113281 142.88398437 -72.30226563 142.76796875 -73.48828125 142.6484375 C-80.02343263 141.9193249 -86.52200675 140.94584801 -93.02124023 139.953125 C-94.4701402 139.73365903 -95.91970128 139.51851587 -97.36987305 139.30761719 C-99.49168295 138.99879907 -101.61109419 138.67662601 -103.73046875 138.3515625 C-104.98239014 138.16416504 -106.23431152 137.97676758 -107.52416992 137.78369141 C-111.11444111 136.97419709 -113.86681726 135.92572104 -117 134 C-117.33 133.01 -117.66 132.02 -118 131 C-115.17392276 128.63615983 -113.09455962 127.56104598 -109.46484375 126.97265625 C-108.5816748 126.8221582 -107.69850586 126.67166016 -106.78857422 126.51660156 C-105.37729248 126.29182129 -105.37729248 126.29182129 -103.9375 126.0625 C-101.9592228 125.72768933 -99.9813637 125.39039998 -98.00390625 125.05078125 C-97.00504395 124.8801416 -96.00618164 124.70950195 -94.97705078 124.53369141 C-89.61849228 123.5730707 -84.30499569 122.40287784 -78.99194336 121.21899414 C-75.54784113 120.46665091 -72.54548388 120 -69 120 C-68.67 119.34 -68.34 118.68 -68 118 C-66.1392197 117.52634683 -64.27593684 117.06074352 -62.40234375 116.640625 C-58.83232973 115.68862126 -55.49823002 114.2453793 -52.1015625 112.8046875 C-50 112 -50 112 -48 112 C-47.67 111.34 -47.34 110.68 -47 110 C-45.27785794 108.85286846 -43.52204063 107.75593626 -41.75 106.6875 C-37.63012288 104.10726768 -34.22652054 101.67464839 -31 98 C-30.48308594 97.49726563 -29.96617187 96.99453125 -29.43359375 96.4765625 C-9.96930544 76.53328723 -7.2740728 42.80844906 -5.12646484 16.72192383 C-5.02156738 15.54525146 -4.91666992 14.3685791 -4.80859375 13.15625 C-4.72407959 12.11275391 -4.63956543 11.06925781 -4.55249023 9.99414062 C-3.88161121 6.35840912 -2.67810373 2.67810373 0 0 Z " fill="#FBCA4E" transform="translate(638,385)"/>
<path d="M0 0 C0.80868731 -0.00297112 1.61737462 -0.00594224 2.4505676 -0.0090034 C5.15328409 -0.01765549 7.85595608 -0.01919584 10.5586853 -0.02069092 C12.50113519 -0.02532248 14.44358417 -0.0303476 16.3860321 -0.03573608 C21.66685086 -0.04885119 26.9476569 -0.05530624 32.2284894 -0.05974674 C35.54382145 -0.06268594 38.85915011 -0.06679287 42.17448044 -0.07125092 C52.59162492 -0.08493897 63.00876155 -0.09459267 73.42591441 -0.09845281 C85.36275128 -0.10290205 97.29947184 -0.12029675 109.23627341 -0.1494534 C118.50991875 -0.1712985 127.78353198 -0.18116947 137.0572027 -0.18249393 C142.57031189 -0.18352815 148.08331202 -0.18912979 153.59639359 -0.20731354 C213.24577709 -0.39281878 284.78173132 -0.00470652 333.8140564 39.14044189 C335.8218689 41.49981689 335.8218689 41.49981689 336.8140564 43.14044189 C332.02498774 42.8411251 329.27038269 40.42027018 325.6812439 37.51544189 C323.7563061 35.95013325 323.7563061 35.95013325 320.8140564 35.14044189 C320.8140564 34.48044189 320.8140564 33.82044189 320.8140564 33.14044189 C319.6074939 32.80012939 319.6074939 32.80012939 318.3765564 32.45294189 C315.52712383 31.40315095 313.28576198 30.33204458 310.6890564 28.82794189 C300.55364735 23.04359229 289.46842949 19.05091976 278.06796265 16.67169189 C274.98013966 15.94388613 272.02762841 14.90960772 269.0328064 13.87091064 C265.66901298 12.76346457 262.25945661 11.95480922 258.8140564 11.14044189 C258.8140564 10.48044189 258.8140564 9.82044189 258.8140564 9.14044189 C257.54304077 9.00509033 256.27202515 8.86973877 254.9624939 8.73028564 C248.91212856 8.05815408 242.89032837 7.19785115 236.86483765 6.33380127 C233.85057859 5.91285192 230.83308467 5.52583473 227.8140564 5.14044189 C226.54950623 4.97243073 225.28495605 4.80441956 223.98208618 4.63131714 C209.96999507 2.8910074 196.04907257 2.86693332 181.9468689 2.90997314 C179.33372512 2.9108323 176.72058098 2.91090962 174.10743713 2.91026306 C167.86636822 2.9105341 161.62537026 2.92199017 155.38432342 2.93785781 C150.35661904 2.95041252 145.32892589 2.95825672 140.3012085 2.9631958 C95.85703372 3.00828487 51.41703609 3.28083329 6.97792053 3.98802185 C-1.07755271 4.11271025 -9.12951285 4.1673374 -17.1859436 4.14044189 C-17.5159436 5.13044189 -17.8459436 6.12044189 -18.1859436 7.14044189 C-19.7796936 8.45684814 -19.7796936 8.45684814 -21.6859436 9.70294189 C-24.44130955 11.45663584 -24.44130955 11.45663584 -26.1859436 14.14044189 C-26.8459436 14.14044189 -27.5059436 14.14044189 -28.1859436 14.14044189 C-26.79316282 8.87882562 -23.45372604 6.2021119 -19.1859436 3.14044189 C-13.15865911 0.05329618 -6.64901638 -0.00770397 0 0 Z " fill="#F73E55" transform="translate(88.18594360351563,195.85955810546875)"/>
<path d="M0 0 C0.33 0 0.66 0 1 0 C2.29400378 108.05042009 2.29400378 108.05042009 1.91378784 145.12750244 C1.88582442 147.85619637 1.86880272 150.58458865 1.86184692 153.31341553 C1.84676954 157.02743003 1.79984147 160.73956033 1.7421875 164.453125 C1.74331291 166.01744766 1.74331291 166.01744766 1.74446106 167.6133728 C1.55829832 175.5219012 -0.50562079 182.50562079 -6.21875 188.21875 C-19.55035268 195.70636246 -35.1280205 194.2975815 -49.94140625 194.265625 C-52.15852399 194.26697509 -54.37564144 194.26891848 -56.59275818 194.27142334 C-61.21966393 194.27435778 -65.84649201 194.27013088 -70.47338867 194.26074219 C-76.37621772 194.24934205 -82.27886495 194.25592151 -88.18168736 194.26788712 C-92.753569 194.27514551 -97.32540819 194.27279968 -101.89729118 194.26763153 C-104.07279418 194.26630638 -106.24830116 194.26790255 -108.42379951 194.27259064 C-139.619342 194.32508502 -139.619342 194.32508502 -149 186 C-152 182.44295302 -152 182.44295302 -152 180 C-149 181 -149 181 -147 184 C-144.87399791 185.41876441 -144.87399791 185.41876441 -142.375 186.625 C-141.55773437 187.05039062 -140.74046875 187.47578125 -139.8984375 187.9140625 C-133.0776577 190.46955682 -125.6344073 190.15271177 -118.4440918 190.16113281 C-116.90339523 190.16858017 -116.90339523 190.16858017 -115.33157349 190.17617798 C-111.95411495 190.19071051 -108.57670334 190.19758608 -105.19921875 190.203125 C-103.46009185 190.20736607 -103.46009185 190.20736607 -101.68583107 190.21169281 C-95.55235188 190.22664813 -89.418896 190.23590115 -83.28540039 190.24023438 C-76.97088942 190.2457189 -70.65659407 190.26975728 -64.34215069 190.29820633 C-59.46663296 190.3168856 -54.5911667 190.32204109 -49.71561623 190.32357025 C-47.38855623 190.32658447 -45.06149687 190.33457106 -42.73447227 190.34775543 C-39.4708477 190.36492943 -36.20774399 190.36290812 -32.9440918 190.35644531 C-31.52147285 190.37026749 -31.52147285 190.37026749 -30.07011414 190.3843689 C-22.34530055 190.33677306 -14.53585127 189.35723418 -8 185 C-7.01 185 -6.02 185 -5 185 C-4.87625 184.154375 -4.7525 183.30875 -4.625 182.4375 C-4 179 -4 179 -2.97094727 176.00048828 C-1.5022509 170.92006682 -1.77208251 165.79990951 -1.83984375 160.5546875 C-1.84504532 159.46664825 -1.85024689 158.37860901 -1.85560608 157.25759888 C-1.87334869 153.79659376 -1.90451391 150.33589073 -1.9375 146.875 C-1.96516127 143.40699813 -1.98986573 139.93903921 -2.00868225 136.47097778 C-2.02089322 134.31735428 -2.03845127 132.1637528 -2.06199646 130.01022339 C-2.07179283 128.54312424 -2.07179283 128.54312424 -2.08178711 127.04638672 C-2.09004013 126.19035858 -2.09829315 125.33433044 -2.10679626 124.45236206 C-1.99473603 121.87912352 -1.56833207 119.50880592 -1 117 C-1.66 116.67 -2.32 116.34 -3 116 C-2.34 116 -1.68 116 -1 116 C-1.00222061 115.06294724 -1.00444122 114.12589447 -1.00672913 113.16044617 C-1.02736578 104.15035542 -1.04216106 95.1402697 -1.05181217 86.13016033 C-1.05694125 81.50253471 -1.06384692 76.87492875 -1.07543945 72.24731445 C-1.13424654 48.14503005 -0.86267775 24.087859 0 0 Z " fill="#DB47E9" transform="translate(212,553)"/>
<path d="M0 0 C0.66 0 1.32 0 2 0 C2.33 139.92 2.66 279.84 3 424 C0.00057317 419.50085976 -0.12463773 416.41464354 -0.12304783 411.1027956 C-0.12420167 410.39359387 -0.12535552 409.68439213 -0.12654433 408.95369944 C-0.12920716 406.55922308 -0.12469154 404.16481295 -0.12025452 401.77033997 C-0.12069029 400.04358409 -0.1215653 398.31682827 -0.12284368 396.59007281 C-0.12508751 391.83098461 -0.12106887 387.07191878 -0.11606562 382.31283343 C-0.11175972 377.18604889 -0.11320765 372.05926569 -0.1139679 366.93247986 C-0.11449304 358.04528821 -0.11134721 349.15810388 -0.10573006 340.27091408 C-0.0976138 327.42142209 -0.09499971 314.57193365 -0.09374207 301.72243937 C-0.09155175 280.87656239 -0.0848922 260.03068931 -0.07543945 239.18481445 C-0.06626482 218.93123392 -0.05918424 198.67765445 -0.05493164 178.42407227 C-0.05466892 177.17629628 -0.05440619 175.9285203 -0.05413551 174.64293293 C-0.0528305 168.38340305 -0.05156679 162.12387317 -0.05032361 155.86434329 C-0.03995161 103.90955949 -0.02233384 51.95477994 0 0 Z " fill="#72174F" transform="translate(57,309)"/>
<path d="M0 0 C0.33 0 0.66 0 1 0 C1.66472966 49.23625478 2.09450149 98.46594947 2.02734375 147.70703125 C2.02460941 149.95210645 2.02189971 152.19718167 2.01921463 154.44225693 C1.99525058 173.74930407 1.95872 193.05632524 1.91250378 212.3633315 C1.88504848 223.85037166 1.86327392 235.33739027 1.85249335 246.82445925 C1.84602803 253.24141468 1.8306629 259.65826233 1.80817592 266.07518065 C1.79644331 270.01322793 1.79307928 273.95124949 1.79207802 277.88931274 C1.7899378 279.70297177 1.78437127 281.51663063 1.7750473 283.33026695 C1.43055549 298.82396537 1.43055549 298.82396537 7 313 C6.67 313.66 6.34 314.32 6 315 C2.37722694 311.93457664 0.66321215 309.95412373 0.1405803 305.21156394 C-0.16764153 300.36271738 -0.13246512 295.51186946 -0.12025452 290.65516663 C-0.12110894 289.41186929 -0.12196337 288.16857195 -0.12284368 286.88759893 C-0.12420333 283.44871615 -0.12108822 280.00989061 -0.11606562 276.57101476 C-0.11173944 272.85808336 -0.11320908 269.14515367 -0.1139679 265.43222046 C-0.11449176 259.00331773 -0.11135935 252.57442516 -0.10573006 246.14552498 C-0.0975964 236.85046215 -0.09499792 227.55540424 -0.09374207 218.26033824 C-0.09155448 203.17900852 -0.08490235 188.09768421 -0.07543945 173.01635742 C-0.06625775 158.3679202 -0.05918062 143.71948444 -0.05493164 129.07104492 C-0.05453756 127.71621403 -0.05453756 127.71621403 -0.05413551 126.33401281 C-0.05283045 121.80273367 -0.05156675 117.27145452 -0.05032361 112.74017537 C-0.03996013 75.16011309 -0.02234979 37.58005697 0 0 Z " fill="#F650E1" transform="translate(59,423)"/>
<path d="M0 0 C0.33 0 0.66 0 1 0 C1.20308979 16.95817083 1.38988107 33.91649128 1.5625 50.875 C1.5815999 52.75000057 1.5815999 52.75000057 1.60108566 54.66287994 C1.92039227 86.40560005 2.1484632 118.13450585 1.5625 149.875 C1.54968616 150.57005394 1.53687233 151.26510788 1.5236702 151.98122406 C1.37393695 159.98806642 1.20267122 167.99431374 1 176 C0.01 175.67 -0.98 175.34 -2 175 C-2.02536111 167.5435458 -2.04287159 160.08710273 -2.05493164 152.63061523 C-2.05995948 150.09415267 -2.06678262 147.55769301 -2.07543945 145.02124023 C-2.08757274 141.37482996 -2.09324384 137.72845803 -2.09765625 134.08203125 C-2.10281754 132.94852737 -2.10797882 131.8150235 -2.11329651 130.64717102 C-2.11337204 129.58644882 -2.11344757 128.52572662 -2.11352539 127.43286133 C-2.115746 126.50242508 -2.11796661 125.57198883 -2.12025452 124.61335754 C-1.99916496 121.98185292 -1.58518198 119.56490609 -1 117 C-1.66 116.67 -2.32 116.34 -3 116 C-2.34 116 -1.68 116 -1 116 C-1.00222061 115.06294724 -1.00444122 114.12589447 -1.00672913 113.16044617 C-1.02736578 104.15035542 -1.04216106 95.1402697 -1.05181217 86.13016033 C-1.05694125 81.50253471 -1.06384692 76.87492875 -1.07543945 72.24731445 C-1.13424654 48.14503005 -0.86267775 24.087859 0 0 Z " fill="#B337AE" transform="translate(212,553)"/>
<path d="M0 0 C0.99 0.99 0.99 0.99 2 2 C-17.44486515 12.67561224 -41.20691223 14.50842835 -63 14 C-64.86978516 13.95746094 -64.86978516 13.95746094 -66.77734375 13.9140625 C-80.44874546 13.34043725 -94.77571733 11.4581116 -107 5 C-107 4.01 -107 3.02 -107 2 C-106.44054687 2.17015625 -105.88109375 2.3403125 -105.3046875 2.515625 C-103.57554427 3.03825993 -101.84490854 3.55596776 -100.11328125 4.0703125 C-97.94022596 4.71922989 -95.77121704 5.38178527 -93.60546875 6.0546875 C-92.43628906 6.40789062 -91.26710938 6.76109375 -90.0625 7.125 C-88.98097656 7.45757812 -87.89945313 7.79015625 -86.78515625 8.1328125 C-77.25721124 10.31568535 -67.48008078 10.19259362 -57.75 10.1875 C-56.47108887 10.18814453 -55.19217773 10.18878906 -53.87451172 10.18945312 C-46.08817217 10.14583773 -38.62198435 9.79553532 -30.9453125 8.4375 C-27.59845914 7.94035467 -24.37867846 7.93225707 -21 8 C-21 7.34 -21 6.68 -21 6 C-20.154375 5.81824219 -19.30875 5.63648438 -18.4375 5.44921875 C-12.06569374 4.03728441 -6.03657281 2.48564763 0 0 Z " fill="#F3BE35" transform="translate(625,330)"/>
<path d="M0 0 C3.77864271 1.25954757 4.74471675 3.06789638 7.01171875 6.2109375 C13.08109921 11.6721875 20.86762312 11.44282307 28.55664062 11.43237305 C29.68922302 11.4425647 30.82180542 11.45275635 31.9887085 11.46325684 C35.71127313 11.49331514 39.4335801 11.50264213 43.15625 11.51171875 C45.74557343 11.52857068 48.3348887 11.54672161 50.92419434 11.56611633 C57.02962918 11.60872328 63.13499791 11.63828374 69.24053335 11.66143972 C76.19592497 11.68855318 83.15117951 11.73246067 90.10647297 11.77772844 C104.40423812 11.87041026 118.70205353 11.94216606 133 12 C133 12.33 133 12.66 133 13 C126.96252398 13.87802501 121.10698691 14.14834429 115.01074219 14.14526367 C114.04373886 14.14862228 113.07673553 14.1519809 112.08042908 14.15544128 C108.90256443 14.16489345 105.72475281 14.16689156 102.546875 14.16796875 C100.32261128 14.17118551 98.09834776 14.17454989 95.87408447 14.17805481 C91.21732086 14.18403189 86.56057577 14.18589619 81.90380859 14.18530273 C75.96161417 14.18520124 70.01953957 14.19884682 64.0773735 14.21607494 C59.48404402 14.22724037 54.89074309 14.22922054 50.29740143 14.22869301 C48.10793902 14.22986653 45.91847572 14.23425274 43.72902679 14.24202538 C12.40064785 14.34282548 12.40064785 14.34282548 3 6 C0 2.44295302 0 2.44295302 0 0 Z " fill="#A934B0" transform="translate(60,733)"/>
<path d="M0 0 C1.18987823 -0.00128164 1.18987823 -0.00128164 2.40379441 -0.00258917 C5.05235142 -0.0042316 7.7008446 0.00125711 10.34939575 0.00672913 C12.2517344 0.00701129 14.15407316 0.00685269 16.05641174 0.00628662 C21.21499238 0.00599979 26.37354976 0.01187812 31.532125 0.01886058 C36.92532578 0.02511307 42.31852711 0.02569942 47.71173096 0.02688599 C57.92195965 0.0299937 68.13217764 0.03819957 78.34240162 0.04823548 C89.96746929 0.05941397 101.59253747 0.06491144 113.21760917 0.06993091 C137.12889423 0.08038263 161.04016978 0.09797126 184.95144653 0.12025452 C184.95144653 0.45025452 184.95144653 0.78025452 184.95144653 1.12025452 C183.51745168 1.12521974 183.51745168 1.12521974 182.05448723 1.13028526 C158.74972253 1.21142431 135.44502263 1.30378367 112.14034843 1.4077816 C100.87020081 1.4578176 89.60006013 1.5042613 78.3298645 1.54212952 C68.50216447 1.57516015 58.6745198 1.61505189 48.84688103 1.66304457 C43.64742362 1.68819987 38.44800241 1.71001305 33.24850082 1.72359848 C28.34507763 1.73651901 23.44177932 1.75867901 18.53842545 1.78763771 C16.747931 1.79663599 14.95741648 1.80238537 13.16690063 1.80446815 C2.89483591 1.81854503 -6.90592022 2.31863751 -17.04855347 4.12025452 C-17.37855347 5.11025452 -17.70855347 6.10025452 -18.04855347 7.12025452 C-19.64230347 8.43666077 -19.64230347 8.43666077 -21.54855347 9.68275452 C-24.30391941 11.43644846 -24.30391941 11.43644846 -26.04855347 14.12025452 C-26.70855347 14.12025452 -27.36855347 14.12025452 -28.04855347 14.12025452 C-26.65577269 8.85863824 -23.3163359 6.18192453 -19.04855347 3.12025452 C-13.05977822 0.05283305 -6.60766077 -0.0262409 0 0 Z " fill="#E6243C" transform="translate(88.04855346679688,195.87974548339844)"/>
<path d="M0 0 C0.33 0 0.66 0 1 0 C0.99777939 0.73978592 0.99555878 1.47957184 0.99327087 2.24177551 C0.9731256 9.25794786 0.95795388 16.27410997 0.94818783 23.29030323 C0.94299803 26.89626627 0.93597243 30.50220515 0.92456055 34.1081543 C0.9135915 37.59652121 0.90769387 41.08486507 0.90512276 44.57324791 C0.90241119 46.5332808 0.89462209 48.49330459 0.88670349 50.45332336 C0.88630595 56.87677356 1.07562339 63.1785139 1.79307556 69.56428528 C2.17072268 74.00958254 1.88349579 78.4288724 1.625 82.875 C1.58117188 83.78507812 1.53734375 84.69515625 1.4921875 85.6328125 C1.27087805 89.83769199 1.0132082 93.89564812 0 98 C-0.66 98 -1.32 98 -2 98 C-4.08081378 75.40830756 -3.12465574 52.48495377 -2.68060303 29.82949829 C-2.64374972 27.91270167 -2.60973959 25.99584813 -2.57867432 24.07894897 C-2.53328175 21.3739592 -2.47537792 18.66951386 -2.4140625 15.96484375 C-2.40250122 15.16193909 -2.39093994 14.35903442 -2.37902832 13.53179932 C-2.25209166 8.68541941 -1.52645604 4.60653061 0 0 Z " fill="#B32749" transform="translate(59,210)"/>
<path d="M0 0 C0.66 0 1.32 0 2 0 C1.63380871 2.45834257 1.40075054 3.67117582 -0.55615234 5.27685547 C-1.560896 5.81656982 -1.560896 5.81656982 -2.5859375 6.3671875 C-3.72107788 6.97929077 -3.72107788 6.97929077 -4.87915039 7.60375977 C-5.70278076 8.02326904 -6.52641113 8.44277832 -7.375 8.875 C-8.64428345 9.53036743 -8.64428345 9.53036743 -9.93920898 10.19897461 C-21.70567405 16.07840274 -33.83764375 20.15081573 -47 21 C-47.33 21.66 -47.66 22.32 -48 23 C-78.07043763 24.47853867 -78.07043763 24.47853867 -91.3125 23.1875 C-92.17576904 23.10516113 -93.03903809 23.02282227 -93.9284668 22.93798828 C-99.72136611 22.27863389 -99.72136611 22.27863389 -102 20 C-101.07755493 20.10393066 -101.07755493 20.10393066 -100.13647461 20.20996094 C-91.94606354 21.05123134 -83.79147354 21.23738036 -75.5625 21.25 C-74.51557983 21.25350464 -74.51557983 21.25350464 -73.44750977 21.25708008 C-61.75372774 21.27180271 -50.47504567 20.31707653 -39 18 C-38.505 16.515 -38.505 16.515 -38 15 C-37.16597656 14.90203125 -36.33195312 14.8040625 -35.47265625 14.703125 C-29.03534762 13.84776669 -23.51450373 12.75690913 -17.70703125 9.8046875 C-16 9 -16 9 -14 9 C-14 8.34 -14 7.68 -14 7 C-12.35 7 -10.7 7 -9 7 C-9 6.34 -9 5.68 -9 5 C-8.43410156 4.72285156 -7.86820312 4.44570313 -7.28515625 4.16015625 C-6.18494141 3.61681641 -6.18494141 3.61681641 -5.0625 3.0625 C-3.96615234 2.52302734 -3.96615234 2.52302734 -2.84765625 1.97265625 C-1.03750973 1.13628173 -1.03750973 1.13628173 0 0 Z " fill="#BB37BE" transform="translate(503,736)"/>
<path d="M0 0 C0 0.66 0 1.32 0 2 C2.97 2.495 2.97 2.495 6 3 C5.67 3.66 5.34 4.32 5 5 C3.73027344 4.72285156 2.46054687 4.44570313 1.15234375 4.16015625 C-9.28196171 1.93944104 -19.31097258 0.25851486 -30 0 C-31.03036377 -0.0306958 -31.03036377 -0.0306958 -32.08154297 -0.06201172 C-50.16148427 -1.0491525 -50.16148427 -1.0491525 -66 6 C-66.66 6.66 -67.32 7.32 -68 8 C-68 5.25 -68 5.25 -67 2 C-52.08892113 -10.43918879 -16.84289776 -4.5959952 0 0 Z " fill="#FD4C80" transform="translate(282,315)"/>
<path d="M0 0 C0.66 0 1.32 0 2 0 C2 0.66 2 1.32 2 2 C2.99 2.33 3.98 2.66 5 3 C5.13277344 3.75925781 5.26554687 4.51851563 5.40234375 5.30078125 C5.57894531 6.29464844 5.75554687 7.28851563 5.9375 8.3125 C6.11152344 9.29863281 6.28554688 10.28476562 6.46484375 11.30078125 C6.95746847 14.08189213 6.95746847 14.08189213 8 17 C7.90499931 18.80822144 7.73117261 20.61278875 7.51171875 22.41015625 C7.38216797 23.48330078 7.25261719 24.55644531 7.11914062 25.66210938 C6.97669922 26.78423828 6.83425781 27.90636719 6.6875 29.0625 C6.55666016 30.15755859 6.42582031 31.25261719 6.29101562 32.38085938 C4.0769271 50.33957739 4.0769271 50.33957739 1 56 C0.34 56 -0.32 56 -1 56 C-1.33 56.99 -1.66 57.98 -2 59 C-2.66 58.67 -3.32 58.34 -4 58 C-3.66226562 57.20078125 -3.32453125 56.4015625 -2.9765625 55.578125 C3.70260372 39.13116077 4.92368916 22.96150869 0.65625 5.79296875 C0 3 0 3 0 0 Z " fill="#F03D83" transform="translate(329,353)"/>
<path d="M0 0 C1.98046875 0.796875 1.98046875 0.796875 2.9921875 2.46875 C3.21519531 3.15453125 3.43820312 3.8403125 3.66796875 4.546875 C3.90515625 5.27261719 4.14234375 5.99835938 4.38671875 6.74609375 C5.77797027 11.55140329 6.07889193 15.77729265 5.98046875 20.796875 C5.50609375 20.136875 5.03171875 19.476875 4.54296875 18.796875 C4.02734375 18.136875 3.51171875 17.476875 2.98046875 16.796875 C2.65046875 16.796875 2.32046875 16.796875 1.98046875 16.796875 C1.99207031 16.13300781 2.00367188 15.46914062 2.015625 14.78515625 C2.09940284 8.23380713 2.09940284 8.23380713 0.98046875 1.796875 C-0.00953125 1.796875 -0.99953125 1.796875 -2.01953125 1.796875 C-2.1896875 2.61671875 -2.35984375 3.4365625 -2.53515625 4.28125 C-2.7775 5.35890625 -3.01984375 6.4365625 -3.26953125 7.546875 C-3.5015625 8.61421875 -3.73359375 9.6815625 -3.97265625 10.78125 C-5.12460646 14.09955434 -6.43732955 15.48621435 -9.01953125 17.796875 C-9.43203125 18.60125 -9.84453125 19.405625 -10.26953125 20.234375 C-12.86055786 24.02837824 -15.73460308 26.13467711 -20.01953125 27.796875 C-24.10306481 28.40339215 -27.96509905 28.63672167 -32.01953125 27.796875 C-34.37890625 25.76171875 -34.37890625 25.76171875 -36.01953125 23.796875 C-35.37886719 23.97605469 -34.73820313 24.15523437 -34.078125 24.33984375 C-28.04383977 25.82368438 -24.55736534 26.14047294 -19.01953125 22.796875 C-14.35389796 19.38294078 -14.35389796 19.38294078 -11.01953125 14.796875 C-10.35953125 14.796875 -9.69953125 14.796875 -9.01953125 14.796875 C-8.72949219 13.90935547 -8.72949219 13.90935547 -8.43359375 13.00390625 C-5.33772971 3.60903172 -5.33772971 3.60903172 -4.01953125 0.796875 C-2.01953125 -0.203125 -2.01953125 -0.203125 0 0 Z " fill="#D34220" transform="translate(687.01953125,189.203125)"/>
<path d="M0 0 C2 0 2 0 3.5234375 1.22265625 C5.20829266 3.25072265 5.85378845 4.92470632 6.625 7.4375 C6.86476563 8.19933594 7.10453125 8.96117187 7.3515625 9.74609375 C7.94866305 11.8215577 8.49314622 13.90086028 9 16 C9.66 16 10.32 16 11 16 C11.66 17.98 12.32 19.96 13 22 C13.66 22 14.32 22 15 22 C15.19335938 22.71027344 15.38671875 23.42054688 15.5859375 24.15234375 C15.97652344 25.53099609 15.97652344 25.53099609 16.375 26.9375 C16.63023437 27.85402344 16.88546875 28.77054688 17.1484375 29.71484375 C17.76660104 32.16745087 17.76660104 32.16745087 20 33 C20.33333333 34.66666667 20.66666667 36.33333333 21 38 C21.66 38.33 22.32 38.66 23 39 C22.67 40.98 22.34 42.96 22 45 C20.515 44.505 20.515 44.505 19 44 C19 43.01 19 42.02 19 41 C18.22224996 39.28617224 17.38159914 37.60029393 16.5 35.9375 C14 31.20833333 14 31.20833333 14 29 C13.01 28.67 12.02 28.34 11 28 C11 27.01 11 26.02 11 25 C10.22224996 23.28617224 9.38159914 21.60029393 8.5 19.9375 C6 15.20833333 6 15.20833333 6 13 C5.34 12.67 4.68 12.34 4 12 C2.9296875 9.78515625 2.9296875 9.78515625 1.875 7.0625 C1.52179688 6.16660156 1.16859375 5.27070312 0.8046875 4.34765625 C0 2 0 2 0 0 Z " fill="#A53299" transform="translate(271,600)"/>
<path d="M0 0 C3.40312738 1.05875074 6.01353231 2.00902154 9 4 C15.25315954 5.10441807 21.39922624 5.1173171 27.734375 5.0625 C29.84521449 5.05394863 31.95605435 5.0454885 34.06689453 5.03710938 C35.16020081 5.03090576 36.25350708 5.02470215 37.37994385 5.01831055 C56.61263744 4.91381343 75.78837179 5.0074784 95 6 C95 6.33 95 6.66 95 7 C84.18596753 7.06963247 73.37198875 7.12287851 62.5577774 7.15543652 C57.53583331 7.17106586 52.51404307 7.1922542 47.4921875 7.22631836 C42.64221187 7.25900927 37.79238386 7.27687355 32.94230652 7.28463173 C31.09561338 7.29015779 29.24892796 7.30094878 27.40229797 7.31719017 C24.80773713 7.33909397 22.21377964 7.34196155 19.61914062 7.34057617 C18.8624408 7.351362 18.10574097 7.36214783 17.32611084 7.3732605 C11.94450007 7.34234081 7.92013661 6.21625116 3 4 C1 1.8125 1 1.8125 0 0 Z " fill="#E64BF0" transform="translate(66,738)"/>
<path d="M0 0 C0.66 0 1.32 0 2 0 C4.98208354 13.19228339 3.76074787 28.59935556 1.6875 41.875 C1.56987305 42.64602051 1.45224609 43.41704102 1.33105469 44.21142578 C0.63539361 48.13897522 -0.10525391 51.15734446 -3 54 C-3.66 54 -4.32 54 -5 54 C-4.5978125 52.2984375 -4.5978125 52.2984375 -4.1875 50.5625 C-3.791023 48.70847086 -3.39529268 46.85428201 -3 45 C-2.73574219 43.87851563 -2.47148438 42.75703125 -2.19921875 41.6015625 C0.70518031 27.80910821 0.29050487 14.03808897 0 0 Z " fill="#B61A19" transform="translate(549,45)"/>
<path d="M0 0 C1 3 1 3 -0.07421875 5.8046875 C-2.27772428 9.46080823 -4.7645139 12.17143726 -7.8125 15.125 C-8.32103516 15.63675781 -8.82957031 16.14851563 -9.35351562 16.67578125 C-14.54979866 21.79961928 -19.69262641 25.5898051 -27 27 C-31.25453352 26.71636443 -33.43821832 26.37452112 -37 24 C-36.01 22.515 -36.01 22.515 -35 21 C-34.34 21.99 -33.68 22.98 -33 24 C-27.29264285 24.78336275 -23.49940949 23.36328605 -19 20 C-11.84953337 14.12021403 -5.15276255 7.72914382 0 0 Z " fill="#D73824" transform="translate(528,126)"/>
<path d="M0 0 C0.79019531 0.32613281 1.58039063 0.65226563 2.39453125 0.98828125 C20.87759981 8.1491501 42.42449752 10.74487874 62 7 C63.93553977 6.81193136 65.87328629 6.64537613 67.8125 6.5 C72.89054248 6.1006034 77.94078748 5.59024146 83 5 C72.59617243 11.93588505 55.61271956 10.27907543 43.5 10.25 C42.48155502 10.24870087 42.48155502 10.24870087 41.4425354 10.24737549 C32.91687136 10.21931572 24.48298095 9.85626334 16 9 C16 8.34 16 7.68 16 7 C15.35933594 6.89042969 14.71867187 6.78085937 14.05859375 6.66796875 C8.6438309 5.67539672 3.96677361 4.37541347 -1 2 C-0.67 1.34 -0.34 0.68 0 0 Z " fill="#EE4EF5" transform="translate(384,748)"/>
<path d="M0 0 C1.89128128 0.0001133 1.89128128 0.0001133 3.82077026 0.00022888 C5.18145793 0.0053343 6.54214518 0.01055028 7.90283203 0.01586914 C9.30673166 0.01773627 10.71063195 0.01915878 12.11453247 0.02015686 C15.79371975 0.02395881 19.47286701 0.03376907 23.15203857 0.04486084 C26.91271422 0.05512508 30.67339639 0.05966519 34.43408203 0.06469727 C41.8012877 0.0753936 49.16846049 0.09244187 56.53564453 0.11352539 C56.53564453 0.44352539 56.53564453 0.77352539 56.53564453 1.11352539 C55.84010468 1.12161224 55.14456482 1.1296991 54.427948 1.13803101 C47.8099016 1.2166093 41.19203585 1.30407867 34.5742321 1.40105247 C31.17355134 1.4505836 27.77289537 1.49690944 24.37207031 1.53540039 C20.4446564 1.58155436 16.517556 1.63946169 12.59033203 1.69946289 C11.39391083 1.7110141 10.19748962 1.72256531 8.96481323 1.73446655 C0.66358489 1.87664073 -7.27478037 2.76492781 -15.46435547 4.11352539 C-15.79435547 5.10352539 -16.12435547 6.09352539 -16.46435547 7.11352539 C-18.05810547 8.42993164 -18.05810547 8.42993164 -19.96435547 9.67602539 C-22.71972141 11.42971934 -22.71972141 11.42971934 -24.46435547 14.11352539 C-25.12435547 14.11352539 -25.78435547 14.11352539 -26.46435547 14.11352539 C-25.07157469 8.85190911 -21.73213791 6.1751954 -17.46435547 3.11352539 C-11.95961237 0.29402283 -6.1001521 -0.0122493 0 0 Z " fill="#E82A42" transform="translate(86.46435546875,195.886474609375)"/>
<path d="M0 0 C0.66 0.33 1.32 0.66 2 1 C1.01 4.96 0.02 8.92 -1 13 C-1.66 13 -2.32 13 -3 13 C-5.33424265 24.54705142 -6.07309527 36.27510226 -7 48 C-9.1188982 44.153053 -9.30752014 40.88472736 -9.25 36.5625 C-9.24613281 35.86253906 -9.24226563 35.16257813 -9.23828125 34.44140625 C-9.13094807 27.85830426 -8.2396614 21.46394873 -7 15 C-6.34 15 -5.68 15 -5 15 C-5.0515625 14.28457031 -5.103125 13.56914062 -5.15625 12.83203125 C-4.97397253 9.52825219 -4.04972758 7.59323922 -2.5 4.6875 C-2.0359375 3.80449219 -1.571875 2.92148438 -1.09375 2.01171875 C-0.55234375 1.01591797 -0.55234375 1.01591797 0 0 Z " fill="#AB241A" transform="translate(459,149)"/>
<path d="M0 0 C3.08339099 0.51800969 6.01166184 1.2858721 8.984375 2.234375 C19.77921186 5.67863309 30.53930177 8.28913025 41.68457031 10.35058594 C42.69487305 10.53911133 43.70517578 10.72763672 44.74609375 10.921875 C45.63997803 11.08268555 46.5338623 11.24349609 47.45483398 11.40917969 C50.13815749 12.03207109 52.51515103 12.80875745 55 14 C55.8125 16.125 55.8125 16.125 56 18 C54.1875 19.5625 54.1875 19.5625 52 21 C51.01 20.67 50.02 20.34 49 20 C49 18 49 16 49 14 C47.8236499 13.77449463 47.8236499 13.77449463 46.62353516 13.54443359 C20.17939339 8.42134097 20.17939339 8.42134097 9.3125 4.75 C8.58434082 4.50427246 7.85618164 4.25854492 7.10595703 4.00537109 C4.20359612 2.97343635 2.20393737 2.20393737 0 0 Z " fill="#E1A324" transform="translate(697,500)"/>
<path d="M0 0 C0.33 0 0.66 0 1 0 C0.67 17.16 0.34 34.32 0 52 C-0.99 51.67 -1.98 51.34 -3 51 C-2.90614473 44.86163649 -2.79997962 38.72365252 -2.68261719 32.58569336 C-2.64443617 30.49948896 -2.60956467 28.41322118 -2.578125 26.3269043 C-2.53223773 23.320571 -2.47428267 20.31467001 -2.4140625 17.30859375 C-2.40251129 16.38227646 -2.39096008 15.45595917 -2.37905884 14.50157166 C-2.26181045 9.30654086 -1.67979814 4.92446086 0 0 Z " fill="#92172B" transform="translate(59,210)"/>
<path d="M0 0 C3.39419263 3.28470255 6.61907735 6.70697152 9.8125 10.1875 C10.99779297 11.47720703 10.99779297 11.47720703 12.20703125 12.79296875 C14 15 14 15 14 17 C14.56203125 17.268125 15.1240625 17.53625 15.703125 17.8125 C18.15550646 19.0803979 20.43927683 20.48972342 22.75 22 C23.54921875 22.515625 24.3484375 23.03125 25.171875 23.5625 C25.77515625 24.036875 26.3784375 24.51125 27 25 C27 25.66 27 26.32 27 27 C23.65626525 26.44271087 20.96687001 25.64826111 18 24 C18 23.34 18 22.68 18 22 C17.15115234 21.64035156 17.15115234 21.64035156 16.28515625 21.2734375 C13.52697289 19.73639857 11.6479272 17.87656882 9.4375 15.625 C8.29087891 14.46871094 8.29087891 14.46871094 7.12109375 13.2890625 C4.059988 9.98554874 1.86321404 7.4599392 1 3 C0.67 2.01 0.34 1.02 0 0 Z " fill="#D341C8" transform="translate(446,631)"/>
<path d="M0 0 C0.556875 0.28875 1.11375 0.5775 1.6875 0.875 C4.08494645 2.0413253 6.51596939 3.0339881 9 4 C9 4.66 9 5.32 9 6 C9.59167969 6.27328125 10.18335938 6.5465625 10.79296875 6.828125 C12.92971676 7.96268147 14.50978322 9.14949728 16.3125 10.75 C16.91578125 11.27851562 17.5190625 11.80703125 18.140625 12.3515625 C18.75421875 12.89554688 19.3678125 13.43953125 20 14 C24.16707657 17.67789802 28.3016624 21.0205664 33 24 C32.01 24.495 32.01 24.495 31 25 C24.16182422 22.08555361 18.37728067 18.0565681 13 13 C11.98196985 12.08036681 10.96228289 11.16256606 9.94140625 10.24609375 C8.835432 9.24795566 7.72996684 8.24925321 6.625 7.25 C6.08818604 6.76571533 5.55137207 6.28143066 4.99829102 5.7824707 C1.11557765 2.2311553 1.11557765 2.2311553 0 0 Z " fill="#A030A2" transform="translate(346,724)"/>
<path d="M0 0 C2 1 2 1 2.84057617 3.19091797 C5.03485812 11.58563977 5.42094813 19.47517686 5.3125 28.125 C5.31572266 29.41792969 5.31894531 30.71085938 5.32226562 32.04296875 C5.28188597 39.25991437 4.79410939 45.99814662 3 53 C1.9375 51.125 1.9375 51.125 1 49 C1.33 48.34 1.66 47.68 2 47 C2.09898617 44.24015349 2.13983231 41.50608544 2.1328125 38.74609375 C2.13424759 37.52201561 2.13424759 37.52201561 2.13571167 36.27320862 C2.13639256 34.54745405 2.13454461 32.82169692 2.13037109 31.09594727 C2.12501468 28.44476617 2.13032267 25.79375397 2.13671875 23.14257812 C2.13605809 21.46874962 2.13477717 19.79492123 2.1328125 18.12109375 C2.13483673 17.32319931 2.13686096 16.52530487 2.13894653 15.70323181 C2.46981962 12.05204724 2.46981962 12.05204724 1 9 C0.76807135 7.48530552 0.58784762 5.96245438 0.4375 4.4375 C0.35371094 3.61121094 0.26992188 2.78492188 0.18359375 1.93359375 C0.12300781 1.29550781 0.06242187 0.65742187 0 0 Z " fill="#A23499" transform="translate(511,676)"/>
<path d="M0 0 C0.33 0 0.66 0 1 0 C1 1.98 1 3.96 1 6 C1.66 6 2.32 6 3 6 C3.27972656 6.92039063 3.55945313 7.84078125 3.84765625 8.7890625 C6.40385098 16.94045935 9.47577275 24.36506753 13.546875 31.87890625 C14.99416746 34.98747258 15.61246546 37.60907279 16 41 C14.515 40.505 14.515 40.505 13 40 C12.67 38.02 12.34 36.04 12 34 C11.01 33.67 10.02 33.34 9 33 C9 32.01 9 31.02 9 30 C8.76230794 27.8817921 8.76230794 27.8817921 8 26 C7.01 25.67 6.02 25.34 5 25 C5 24.01 5 23.02 5 22 C4.41863711 20.06964944 3.78710851 18.15416607 3.125 16.25 C2.76277344 15.18394531 2.40054687 14.11789063 2.02734375 13.01953125 C1.51880859 11.52486328 1.51880859 11.52486328 1 10 C-1.16666667 3.5 -1.16666667 3.5 0 0 Z " fill="#9D2712" transform="translate(452,197)"/>
<path d="M0 0 C10.4744189 1.39266618 22.07176263 10.3784536 30 17 C30.66 17.99 31.32 18.98 32 20 C27.21093135 19.70068321 24.4563263 17.27982829 20.8671875 14.375 C18.94224971 12.80969136 18.94224971 12.80969136 16 12 C16 11.34 16 10.68 16 10 C15.195625 9.773125 14.39125 9.54625 13.5625 9.3125 C9.13733394 7.68217566 4.85874356 5.73767701 1 3 C0.67 2.01 0.34 1.02 0 0 Z " fill="#EE3B50" transform="translate(393,219)"/>
<path d="M0 0 C0.66 0.66 1.32 1.32 2 2 C-10.57933049 8.90629909 -23.97087937 11.04451539 -38 13 C-38 12.34 -38 11.68 -38 11 C-36.10507994 10.66151348 -34.20901534 10.32943089 -32.3125 10 C-30.72888672 9.7215625 -30.72888672 9.7215625 -29.11328125 9.4375 C-26.35095938 9.04931926 -23.78257957 8.91740024 -21 9 C-21 8.01 -21 7.02 -21 6 C-20.154375 5.81824219 -19.30875 5.63648438 -18.4375 5.44921875 C-12.06569374 4.03728441 -6.03657281 2.48564763 0 0 Z " fill="#F2AF28" transform="translate(625,330)"/>
<path d="M0 0 C10.28889289 0.42084329 20.51104478 1.27885364 30.75 2.375 C32.41639526 2.5457605 32.41639526 2.5457605 34.11645508 2.7199707 C41.90483715 3.58227846 49.40347005 5.08604882 57 7 C56.67 7.66 56.34 8.32 56 9 C55.236875 8.814375 54.47375 8.62875 53.6875 8.4375 C50.91032625 7.77180827 50.91032625 7.77180827 48 9 C47.505 8.01 47.505 8.01 47 7 C45.68 7 44.36 7 43 7 C43 6.34 43 5.68 43 5 C41.88882813 5.02320313 40.77765625 5.04640625 39.6328125 5.0703125 C32.33350273 5.17546857 25.53753766 5.19795098 18.41015625 3.4375 C14.50074179 2.7278494 10.6203773 2.95797879 6.6640625 3.125 C3.8876316 2.99472758 2.35286255 2.42732894 0 1 C0 0.67 0 0.34 0 0 Z " fill="#FD4F6A" transform="translate(289,198)"/>
<path d="M0 0 C6.62054941 0.71573507 10.5197049 3.17506681 15 8 C15.763125 8.763125 16.52625 9.52625 17.3125 10.3125 C17.869375 10.869375 18.42625 11.42625 19 12 C10.73770492 8.78688525 10.73770492 8.78688525 8.125 6 C5.58573035 3.61009915 3.33088304 2.90842265 0 2 C0.8604139 6.33229715 0.8604139 6.33229715 3 10 C3.07271741 12.35313555 3.08370868 14.70833668 3.0625 17.0625 C3.05347656 18.35285156 3.04445313 19.64320312 3.03515625 20.97265625 C3.02355469 21.97167969 3.01195312 22.97070312 3 24 C2.67 24 2.34 24 2 24 C1.32438628 21.4604163 0.65934172 18.91881165 0 16.375 C-0.19078125 15.66214844 -0.3815625 14.94929688 -0.578125 14.21484375 C-1.64189022 10.07375771 -2.41431332 6.31144796 -2 2 C-1.34 1.34 -0.68 0.68 0 0 Z " fill="#9E161C" transform="translate(546,21)"/>
<path d="M0 0 C36.54120025 -0.27392204 36.54120025 -0.27392204 49 2 C49 2.66 49 3.32 49 4 C50.98 4.33 52.96 4.66 55 5 C54.67 5.66 54.34 6.32 54 7 C52.73027344 6.72285156 51.46054687 6.44570313 50.15234375 6.16015625 C33.65725717 2.64919269 17.83369156 1.82645679 1 2 C0.67 1.34 0.34 0.68 0 0 Z " fill="#ED2C55" transform="translate(233,313)"/>
<path d="M0 0 C0.33 0 0.66 0 1 0 C2.07607033 11.43486781 1.92375577 20.8260423 -1 32 C-1.35420175 33.99640984 -1.69394568 35.99564428 -2 38 C-3.485 38.495 -3.485 38.495 -5 39 C-5.33 39.99 -5.66 40.98 -6 42 C-6.66 41.67 -7.32 41.34 -8 41 C-7.66226562 40.20078125 -7.32453125 39.4015625 -6.9765625 38.578125 C-1.7943487 25.81729796 -0.6555668 13.59438527 0 0 Z " fill="#751537" transform="translate(333,370)"/>
<path d="M0 0 C0.66 0 1.32 0 2 0 C2.103125 0.639375 2.20625 1.27875 2.3125 1.9375 C2.539375 2.618125 2.76625 3.29875 3 4 C3.99 4.33 4.98 4.66 6 5 C6.84420729 7.38240706 7.49151278 9.61403433 8.0625 12.0625 C8.23023926 12.7433667 8.39797852 13.4242334 8.57080078 14.12573242 C9.05225074 16.082586 9.52630353 18.04125508 10 20 C10.45680185 21.60460344 10.91470593 23.20889484 11.375 24.8125 C11.58125 25.864375 11.7875 26.91625 12 28 C11.34 28.66 10.68 29.32 10 30 C8.84860965 26.77278785 7.70488074 23.54291128 6.5625 20.3125 C6.07426758 18.94448242 6.07426758 18.94448242 5.57617188 17.54882812 C5.26357422 16.66259766 4.95097656 15.77636719 4.62890625 14.86328125 C4.34088135 14.05157471 4.05285645 13.23986816 3.75610352 12.40356445 C2.98497826 9.95224766 2.45817775 7.52686013 2 5 C1.34 5 0.68 5 0 5 C0 3.35 0 1.7 0 0 Z " fill="#D48E25" transform="translate(499,296)"/>
<path d="M0 0 C7.52681925 2.37689029 14.81318647 5.25906783 22.11328125 8.24462891 C23.91818561 8.9672446 25.74014012 9.6468284 27.5625 10.32421875 C28.635 10.73285156 29.7075 11.14148438 30.8125 11.5625 C31.76769531 11.91441406 32.72289062 12.26632812 33.70703125 12.62890625 C36.61500965 14.36774853 37.1543287 15.7692318 38 19 C37.625 21.3125 37.625 21.3125 37 23 C36.505 21.9275 36.01 20.855 35.5 19.75 C33.04042335 15.38823277 29.64039841 13.61710854 25 12 C24.34 12 23.68 12 23 12 C23 11.34 23 10.68 23 10 C21.2675 9.87625 21.2675 9.87625 19.5 9.75 C14.73465237 9.16064605 11.15512689 7.29602888 7 5 C5.865625 4.46375 4.73125 3.9275 3.5625 3.375 C1 2 1 2 0 0 Z " fill="#EB4BE4" transform="translate(474,659)"/>
<path d="M0 0 C0.33 0 0.66 0 1 0 C1.54384546 6.66210686 0.85510676 10.49270463 -3 16 C-3.474375 16.47308594 -3.94875 16.94617188 -4.4375 17.43359375 C-6.22756088 19.22812978 -7.68336938 21.14856738 -9.1875 23.1875 C-9.71730469 23.90292969 -10.24710938 24.61835937 -10.79296875 25.35546875 C-11.19128906 25.89816406 -11.58960938 26.44085938 -12 27 C-12.66 26.67 -13.32 26.34 -14 26 C-13.01 24.02 -12.02 22.04 -11 20 C-10.34 20 -9.68 20 -9 20 C-8.7525 18.96875 -8.505 17.9375 -8.25 16.875 C-7.16785596 13.05295935 -5.25198494 10.27561446 -3 7 C-1.89527097 4.69731587 -0.94941077 2.37352692 0 0 Z " fill="#9E1D16" transform="translate(543,99)"/>
<path d="M0 0 C0.33 0 0.66 0 1 0 C3.68962855 14.50478251 3.95036866 29.37223502 2 44 C1.67 44 1.34 44 1 44 C0.67 33.44 0.34 22.88 0 12 C-0.33 12 -0.66 12 -1 12 C-0.67 8.04 -0.34 4.08 0 0 Z " fill="#D4401C" transform="translate(649,138)"/>
<path d="M0 0 C0.33 0 0.66 0 1 0 C2.86956888 12.07315734 3.24840756 23.8036079 3.125 36 C3.11493498 37.75780731 3.10581545 39.51562031 3.09765625 41.2734375 C3.07595647 45.51576925 3.04162768 49.75781894 3 54 C2.67 54 2.34 54 2 54 C1.98018066 53.13310547 1.96036133 52.26621094 1.93994141 51.37304688 C1.86132693 48.12249032 1.7746183 44.87227343 1.68261719 41.62207031 C1.64459687 40.22176265 1.60969966 38.82136626 1.578125 37.42089844 C1.51612105 28.39787543 1.51612105 28.39787543 -0.0625 19.5625 C-1.17938898 15.31832186 -1.02544813 11.82483977 -0.625 7.5 C-0.56828125 6.77296875 -0.5115625 6.0459375 -0.453125 5.296875 C-0.31365839 3.530298 -0.15850465 1.76497068 0 0 Z " fill="#AC1C3F" transform="translate(478,335)"/>
<path d="M0 0 C7.18784033 0.32672002 12.74080732 3.68485447 19 7 C20.07765625 7.515625 21.1553125 8.03125 22.265625 8.5625 C25.14654888 10.07704284 26.17120238 11.38743198 28 14 C28.99 14.33 29.98 14.66 31 15 C31 16.65 31 18.3 31 20 C28.24777771 18.91876982 27.00850437 18.01099389 25.171875 15.63671875 C18.94269515 8.07431516 8.93752106 4.38471566 0 1 C0 0.67 0 0.34 0 0 Z " fill="#C62A52" transform="translate(290,320)"/>
<path d="M0 0 C0.33 0.66 0.66 1.32 1 2 C1.66 2.33 2.32 2.66 3 3 C2.01 3.495 2.01 3.495 1 4 C0.20971824 5.72510393 0.20971824 5.72510393 -0.40234375 7.82421875 C-0.65306641 8.60603516 -0.90378906 9.38785156 -1.16210938 10.19335938 C-1.54592773 11.42795898 -1.54592773 11.42795898 -1.9375 12.6875 C-3.61319152 18.03171312 -5.3209328 23.04972359 -8 28 C-8.66 27.01 -9.32 26.02 -10 25 C-9.505 23.515 -9.505 23.515 -9 22 C-8.34 22 -7.68 22 -7 22 C-7.33 21.01 -7.66 20.02 -8 19 C-7.34 19 -6.68 19 -6 19 C-5.89042969 18.28714844 -5.78085937 17.57429688 -5.66796875 16.83984375 C-3.4516129 3.4516129 -3.4516129 3.4516129 0 0 Z " fill="#E3601F" transform="translate(691,252)"/>
<path d="M0 0 C0.66 0 1.32 0 2 0 C7.1018244 5.3775987 12.3125 11.86544026 12.3125 19.5625 C12.1578125 21.2640625 12.1578125 21.2640625 12 23 C8.81387292 19.14365201 6.62969027 14.78024848 4.3125 10.375 C3.89677734 9.59898437 3.48105469 8.82296875 3.05273438 8.0234375 C2.66021484 7.2809375 2.26769531 6.5384375 1.86328125 5.7734375 C1.50532471 5.09716309 1.14736816 4.42088867 0.77856445 3.72412109 C0 2 0 2 0 0 Z " fill="#CE3AB6" transform="translate(253,564)"/>
<path d="M0 0 C1.32 0 2.64 0 4 0 C3.62425073 2.5797711 3.18864508 3.8046336 1.35546875 5.703125 C-4.21145799 9.67520245 -8.49328932 10.65495459 -15.30078125 10.6015625 C-18.60636695 9.86486178 -19.85524088 8.55740874 -22 6 C-21.35933594 6.17917969 -20.71867188 6.35835937 -20.05859375 6.54296875 C-15.5652565 7.64788775 -12.72143409 8.2010554 -8.1875 6.9375 C-4.89830631 5.11057955 -4.89830631 5.11057955 -2.3125 2.3125 C-1.549375 1.549375 -0.78625 0.78625 0 0 Z " fill="#EB4F22" transform="translate(673,207)"/>
<path d="M0 0 C1.16063604 4.25566547 0.76173392 7.6835078 0 12 C-0.33 12 -0.66 12 -1 12 C-1 8.37 -1 4.74 -1 1 C-5.01232741 3.11761724 -7.22277079 5.4566386 -10 9 C-10.66 9 -11.32 9 -12 9 C-12.33 9.99 -12.66 10.98 -13 12 C-15.0625 12.6875 -15.0625 12.6875 -17 13 C-15.58378621 9.87311213 -13.87668024 7.46099085 -11.625 4.875 C-11.03976562 4.19179687 -10.45453125 3.50859375 -9.8515625 2.8046875 C-6.61320799 -0.35168335 -4.35273051 -1.55454661 0 0 Z " fill="#BA221C" transform="translate(493,114)"/>
<path d="M0 0 C4.61059897 1.38075731 6.53161672 3.4423065 9.3125 7.3125 C10.00988281 8.25738281 10.70726562 9.20226562 11.42578125 10.17578125 C13.0777886 13.13955623 13.35735807 14.67475285 13 18 C7.86367183 13.3452026 3.76689771 7.80457439 0 2 C0 1.34 0 0.68 0 0 Z " fill="#A833A6" transform="translate(318,688)"/>
<path d="M0 0 C3.8046875 0.7734375 3.8046875 0.7734375 5.5625 2.8125 C6.036875 3.534375 6.51125 4.25625 7 5 C7.7734375 5.9590625 7.7734375 5.9590625 8.5625 6.9375 C12.22307077 12.18962328 12.24314627 16.79977005 12 23 C11.34 22.67 10.68 22.34 10 22 C9.39453125 20.13671875 9.39453125 20.13671875 8.8125 17.6875 C6.99677936 11.15279709 3.58060737 5.70935203 0 0 Z " fill="#BE992F" transform="translate(611,552)"/>
<path d="M0 0 C1.44457924 2.88915847 0.34238237 4.92189809 -0.38671875 7.9375 C-1.71073585 14.54915227 -2.27697355 21.30046767 -3 28 C-3.66 27.67 -4.32 27.34 -5 27 C-4.94782273 23.62377072 -4.85267982 20.25004113 -4.75 16.875 C-4.73582031 15.92367188 -4.72164062 14.97234375 -4.70703125 13.9921875 C-4.50098567 8.05807483 -3.85617691 4.58113817 0 0 Z " fill="#AF7D20" transform="translate(638,385)"/>
<path d="M0 0 C0.33 0 0.66 0 1 0 C0.7834375 1.7634375 0.7834375 1.7634375 0.5625 3.5625 C0.47226562 4.30242187 0.38203125 5.04234375 0.2890625 5.8046875 C0.05191499 7.60572666 -0.24680417 9.39855697 -0.5625 11.1875 C-1.09778357 15.85211398 -1.0247568 20.41932188 -0.9375 25.109375 C-1 28 -1 28 -2 31 C-1.91538508 32.73324119 -1.76395645 34.46392812 -1.5625 36.1875 C-1.46066406 37.08855469 -1.35882813 37.98960937 -1.25390625 38.91796875 C-1.17011719 39.60503906 -1.08632813 40.29210937 -1 41 C-1.66 41 -2.32 41 -3 41 C-5.90518387 27.92667257 -3.89968268 12.66577609 0 0 Z " fill="#FA4E3A" transform="translate(456,162)"/>
<path d="M0 0 C0.79019531 0.32613281 1.58039063 0.65226563 2.39453125 0.98828125 C12.43446945 4.87804016 22.34864637 6.60328732 33 8 C33 8.66 33 9.32 33 10 C27.39 9.67 21.78 9.34 16 9 C16 8.34 16 7.68 16 7 C15.35933594 6.89042969 14.71867187 6.78085937 14.05859375 6.66796875 C8.6438309 5.67539672 3.96677361 4.37541347 -1 2 C-0.67 1.34 -0.34 0.68 0 0 Z " fill="#E64AEC" transform="translate(384,748)"/>
<path d="M0 0 C2.475 0.495 2.475 0.495 5 1 C5.061875 2.0209375 5.061875 2.0209375 5.125 3.0625 C6.04560068 6.15308801 6.9017481 7.14964504 9.0625 9.4375 C11.49746221 12.08748274 11.966356 12.69159665 12.375 16.4375 C12.25125 17.283125 12.1275 18.12875 12 19 C10.2925002 17.71937515 8.62626404 16.38232443 7 15 C7 14.34 7 13.68 7 13 C6.505 12.175 6.01 11.35 5.5 10.5 C4 8 4 8 4 6 C3.34 6 2.68 6 2 6 C2 5.01 2 4.02 2 3 C1.34 2.67 0.68 2.34 0 2 C0 1.34 0 0.68 0 0 Z " fill="#952E90" transform="translate(306,669)"/>
<path d="M0 0 C0.95648261 3.04681167 0.99273377 5.05578537 0.2578125 8.15234375 C0.07863281 8.92900391 -0.10054687 9.70566406 -0.28515625 10.50585938 C-0.47980469 11.30830078 -0.67445313 12.11074219 -0.875 12.9375 C-1.24771068 14.52987426 -1.62011491 16.12232028 -1.9921875 17.71484375 C-2.1684668 18.45718262 -2.34474609 19.19952148 -2.52636719 19.96435547 C-3.0698127 22.30005066 -3.55261245 24.64407622 -4 27 C-4.33 27 -4.66 27 -5 27 C-5.72173814 6.63094584 -5.72173814 6.63094584 0 0 Z " fill="#DAA831" transform="translate(653,578)"/>
<path d="M0 0 C0.33 0.66 0.66 1.32 1 2 C0.18015625 2.09796875 -0.6396875 2.1959375 -1.484375 2.296875 C-3.10085938 2.52117188 -3.10085938 2.52117188 -4.75 2.75 C-5.81734375 2.88921875 -6.8846875 3.0284375 -7.984375 3.171875 C-11.39974598 4.1097748 -12.75507663 5.31916918 -15 8 C-13.68 8.66 -12.36 9.32 -11 10 C-11 10.66 -11 11.32 -11 12 C-17.64615385 10.52307692 -17.64615385 10.52307692 -19.4375 7.875 C-19.7159375 6.946875 -19.7159375 6.946875 -20 6 C-16.33923908 2.56081145 -12.52832898 2.08496838 -7.75 1.3125 C-7.00492188 1.18294922 -6.25984375 1.05339844 -5.4921875 0.91992188 C-3.66314822 0.60335738 -1.83177565 0.30032601 0 0 Z " fill="#CB972C" transform="translate(540,510)"/>
<path d="M0 0 C0.33 0 0.66 0 1 0 C1 5.28 1 10.56 1 16 C0.34 16 -0.32 16 -1 16 C-0.79375 16.99 -0.5875 17.98 -0.375 19 C0.27862302 23.37837888 -0.74542211 26.79347412 -2 31 C-2.66 31 -3.32 31 -4 31 C-3.35465725 23.92335032 -2.46929362 16.90501966 -1.4375 9.875 C-1.29892578 8.91851562 -1.16035156 7.96203125 -1.01757812 6.9765625 C-0.68033541 4.65075065 -0.3411174 2.32524616 0 0 Z " fill="#6B4C12" transform="translate(632,412)"/>
<path d="M0 0 C0.33 0.66 0.66 1.32 1 2 C-2.3 2.66 -5.6 3.32 -9 4 C-9.33 4.99 -9.66 5.98 -10 7 C-11.59375 8.31640625 -11.59375 8.31640625 -13.5 9.5625 C-16.25536594 11.31619395 -16.25536594 11.31619395 -18 14 C-18.66 14 -19.32 14 -20 14 C-18.60721922 8.73838372 -15.26778244 6.06167001 -11 3 C-7.42788875 1.17038204 -3.96323955 0.55301017 0 0 Z " fill="#BD273B" transform="translate(80,196)"/>
<path d="M0 0 C2 0 2 0 3.52734375 1.22265625 C5.21250683 3.25647376 5.81753751 4.9131414 6.5625 7.4375 C7.26897323 9.79640215 7.95831018 11.91857692 9.08203125 14.11328125 C10.24401601 16.50153079 10.14561122 18.37899797 10 21 C7.80421527 18.32687076 6.80350799 16.32881882 6 13 C5.34 12.67 4.68 12.34 4 12 C2.9296875 9.78515625 2.9296875 9.78515625 1.875 7.0625 C1.52179688 6.16660156 1.16859375 5.27070312 0.8046875 4.34765625 C0 2 0 2 0 0 Z " fill="#832374" transform="translate(271,600)"/>
<path d="M0 0 C0.99 0.33 1.98 0.66 3 1 C1.52846983 4.96068567 -0.32503172 8.53043126 -2.4375 12.1875 C-3.03433594 13.23292969 -3.63117188 14.27835937 -4.24609375 15.35546875 C-6 18 -6 18 -9 20 C-8.57405412 18.55903414 -8.13373367 17.12231288 -7.6875 15.6875 C-7.32205078 14.48673828 -7.32205078 14.48673828 -6.94921875 13.26171875 C-5.9458372 10.87094544 -4.84690515 9.76768134 -3 8 C-2.67 7.01 -2.34 6.02 -2 5 C-1.34 5 -0.68 5 0 5 C0 3.35 0 1.7 0 0 Z " fill="#CE3786" transform="translate(460,447)"/>
<path d="M0 0 C2.475 0.495 2.475 0.495 5 1 C5 1.99 5 2.98 5 4 C5.474375 4.45375 5.94875 4.9075 6.4375 5.375 C8.49908852 7.51905206 8.71408324 9.06935319 9 12 C8.5625 14.3125 8.5625 14.3125 8 16 C7.71125 15.360625 7.4225 14.72125 7.125 14.0625 C6.17176549 11.84793921 6.17176549 11.84793921 4 11 C4 9.68 4 8.36 4 7 C3.34 6.67 2.68 6.34 2 6 C1.27306096 4.02111039 0.60183749 2.02045442 0 0 Z " fill="#AD5711" transform="translate(480,258)"/>
<path d="M0 0 C3.11373372 1.49920512 6.12228205 3.08152136 9 5 C9 5.66 9 6.32 9 7 C9.55171875 7.24492188 10.1034375 7.48984375 10.671875 7.7421875 C13.47639491 9.25738114 15.78103123 11.11084126 18.25 13.125 C19.14203125 13.84945312 20.0340625 14.57390625 20.953125 15.3203125 C21.62859375 15.87460937 22.3040625 16.42890625 23 17 C20 17 20 17 17 16 C17 15.34 17 14.68 17 14 C16.34 14 15.68 14 15 14 C15 13.34 15 12.68 15 12 C14.0925 11.773125 13.185 11.54625 12.25 11.3125 C8.44839366 9.7772359 7.36714049 8.28345294 5 5 C3.35216394 3.31471312 1.68997323 1.64302953 0 0 Z " fill="#DC1E23" transform="translate(565,33)"/>
<path d="M0 0 C3.76223259 1.8811163 4.77848046 6.43512519 6.25 10.1875 C7 13 7 13 6 16 C3 12.25 3 12.25 3 10 C2.01 9.67 1.02 9.34 0 9 C0 8.34 0 7.68 0 7 C-0.64252365 4.9921136 -1.30741771 2.99117408 -2 1 C-1.34 0.67 -0.68 0.34 0 0 Z " fill="#9D2E96" transform="translate(300,653)"/>
<path d="M0 0 C0.66 0 1.32 0 2 0 C3.28297723 7.41148455 4.25515919 14.47280398 4 22 C3.34 22 2.68 22 2 22 C1.66076424 19.64655194 1.32849466 17.2924516 1 14.9375 C0.85691406 13.95233398 0.85691406 13.95233398 0.7109375 12.94726562 C0.11112326 8.59861237 -0.09127093 4.38670929 0 0 Z " fill="#9A711C" transform="translate(629,601)"/>
<path d="M0 0 C0.99 0 1.98 0 3 0 C1.443154 4.01303508 -0.31138857 7.9092928 -2.125 11.8125 C-2.93324219 13.55466797 -2.93324219 13.55466797 -3.7578125 15.33203125 C-4.16773438 16.21246094 -4.57765625 17.09289062 -5 18 C-5.33 18 -5.66 18 -6 18 C-6 15.36 -6 12.72 -6 10 C-5.34 10 -4.68 10 -4 10 C-4 8.35 -4 6.7 -4 5 C-3.34 5 -2.68 5 -2 5 C-1.34 3.35 -0.68 1.7 0 0 Z " fill="#E3B438" transform="translate(661,557)"/>
<path d="M0 0 C0.66 0 1.32 0 2 0 C2.85319945 3.62250675 3.06555517 6.80729163 2.87890625 10.51953125 C2.83056641 11.54111328 2.78222656 12.56269531 2.73242188 13.61523438 C2.67634766 14.67033203 2.62027344 15.72542969 2.5625 16.8125 C2.51029297 17.88693359 2.45808594 18.96136719 2.40429688 20.06835938 C2.2750247 22.71256304 2.14007564 25.35635027 2 28 C1.67 28 1.34 28 1 28 C-0.25406138 22.21354356 -0.11186913 16.51131884 -0.0625 10.625 C-0.05798828 9.60277344 -0.05347656 8.58054687 -0.04882812 7.52734375 C-0.037103 5.01816806 -0.02069176 2.5091151 0 0 Z " fill="#7E0F11" transform="translate(549,45)"/>
<path d="M0 0 C0.99 0 1.98 0 3 0 C3.3125 2.1875 3.3125 2.1875 3 5 C0.8125 7.375 0.8125 7.375 -2 10 C-3.75987878 12.27832956 -5.36992177 14.62474315 -7 17 C-7.33 16.34 -7.66 15.68 -8 15 C-6.30886815 10.19362528 -4.67412958 7.5516586 -1 4 C-0.2127322 1.8618034 -0.2127322 1.8618034 0 0 Z " fill="#E06D1C" transform="translate(678,282)"/>
<path d="M0 0 C0.66 0 1.32 0 2 0 C1.90234375 1.76171875 1.90234375 1.76171875 1 4 C-1.1523691 5.46712506 -3.13392216 6.64716062 -5.4375 7.8125 C-6.3356543 8.29879883 -6.3356543 8.29879883 -7.25195312 8.79492188 C-8.79830194 9.60359477 -10.39714 10.31008237 -12 11 C-12.66 10.67 -13.32 10.34 -14 10 C-13.01 9.67 -12.02 9.34 -11 9 C-11 8.34 -11 7.68 -11 7 C-10.34 7 -9.68 7 -9 7 C-9 6.34 -9 5.68 -9 5 C-8.43410156 4.72285156 -7.86820312 4.44570313 -7.28515625 4.16015625 C-6.55167969 3.79792969 -5.81820313 3.43570313 -5.0625 3.0625 C-3.96615234 2.52302734 -3.96615234 2.52302734 -2.84765625 1.97265625 C-1.03750973 1.13628173 -1.03750973 1.13628173 0 0 Z " fill="#C03DBF" transform="translate(503,736)"/>
<path d="M0 0 C3.30921276 1.10307092 3.71023629 1.68954728 5.6875 4.375 C10.00368841 9.5757406 14.97966968 10.82349863 21.5 11.6875 C23.2325 11.8421875 23.2325 11.8421875 25 12 C24.67 12.66 24.34 13.32 24 14 C14.85560666 13.10258069 7.36992457 11.18134234 1.25390625 3.9296875 C0 2 0 2 0 0 Z " fill="#77247B" transform="translate(60,733)"/>
<path d="M0 0 C0.556875 0.28875 1.11375 0.5775 1.6875 0.875 C4.08494645 2.0413253 6.51596939 3.0339881 9 4 C9 4.66 9 5.32 9 6 C9.61875 6.20625 10.2375 6.4125 10.875 6.625 C13.84653645 8.54775888 14.13024659 10.66594527 15 14 C9.5355194 10.12518648 4.44425263 6.04144908 0 1 C0 0.67 0 0.34 0 0 Z " fill="#902B92" transform="translate(346,724)"/>
<path d="M0 0 C0.33 0.99 0.66 1.98 1 3 C0.44570313 3.60328125 -0.10859375 4.2065625 -0.6796875 4.828125 C-1.40414063 5.62734375 -2.12859375 6.4265625 -2.875 7.25 C-3.59429687 8.03890625 -4.31359375 8.8278125 -5.0546875 9.640625 C-6.76935483 11.72026168 -7.92980873 13.54419267 -9 16 C-10.98 16 -12.96 16 -15 16 C-12.59496947 13.52625431 -10.26364528 11.19773396 -7.5 9.125 C-4.31138079 6.41467367 -2.33436968 3.46820638 0 0 Z " fill="#981F52" transform="translate(324,412)"/>
<path d="M0 0 C0.33 0 0.66 0 1 0 C0.6143173 5.86503696 -0.0066953 10.86862052 -3 16 C-5.6875 16.9375 -5.6875 16.9375 -8 17 C-7.505 15.515 -7.505 15.515 -7 14 C-6.34 14 -5.68 14 -5 14 C-4.70996094 13.11248047 -4.70996094 13.11248047 -4.4140625 12.20703125 C-3.05585281 8.0853355 -1.67949415 4.0049476 0 0 Z " fill="#AA351A" transform="translate(683,190)"/>
<path d="M0 0 C0.66 0.33 1.32 0.66 2 1 C1.43096831 4.98322182 0.40909043 7.76018873 -2 11 C-5.1875 13.3125 -5.1875 13.3125 -8 15 C-8.66 14.67 -9.32 14.34 -10 14 C-8.1875 12 -8.1875 12 -6 10 C-5.01 10 -4.02 10 -3 10 C-2.814375 8.63875 -2.814375 8.63875 -2.625 7.25 C-2.07890323 4.41029677 -1.42736197 2.47409409 0 0 Z " fill="#BC3EC2" transform="translate(210,728)"/>
<path d="M0 0 C0.66 0 1.32 0 2 0 C2.268125 0.639375 2.53625 1.27875 2.8125 1.9375 C3.88667752 4.33131686 3.88667752 4.33131686 7 5 C7.33 4.34 7.66 3.68 8 3 C7.67 4.98 7.34 6.96 7 9 C5.68 9.33 4.36 9.66 3 10 C0.59185923 6.48812804 -0.36629408 4.27343092 0 0 Z " fill="#AD882A" transform="translate(634,642)"/>
<path d="M0 0 C0.66 0 1.32 0 2 0 C2 0.66 2 1.32 2 2 C2.99 2.33 3.98 2.66 5 3 C5.05410687 4.77049689 5.09284119 6.54146849 5.125 8.3125 C5.14820313 9.29863281 5.17140625 10.28476562 5.1953125 11.30078125 C5 14 5 14 3 17 C2.49622232 14.73000175 1.99709981 12.45896997 1.5 10.1875 C1.08234375 8.29064453 1.08234375 8.29064453 0.65625 6.35546875 C0 3 0 3 0 0 Z " fill="#851B3D" transform="translate(329,353)"/>
<path d="M0 0 C0.66 1.32 1.32 2.64 2 4 C1.030625 4.12375 0.06125 4.2475 -0.9375 4.375 C-3.86093675 4.78333428 -6.69207375 5.37651678 -9.5625 6.0625 C-13.10931504 6.88239731 -16.34327109 7.18752456 -20 7 C-16.75421598 4.83614399 -14.34716433 4.2255829 -10.5625 3.375 C-8.86287109 2.98441406 -8.86287109 2.98441406 -7.12890625 2.5859375 C-4 2 -4 2 0 2 C0 1.34 0 0.68 0 0 Z " fill="#DFA92C" transform="translate(569,503)"/>
<path d="M0 0 C0.33 0 0.66 0 1 0 C1.90483637 5.36489595 2.12303662 10.50317457 2.0625 15.9375 C2.05798828 16.71673828 2.05347656 17.49597656 2.04882812 18.29882812 C2.03716908 20.19925268 2.01923877 22.09963706 2 24 C1.67 24 1.34 24 1 24 C-1.82635836 16.01969403 -0.7431678 8.27527386 0 0 Z " fill="#D63661" transform="translate(478,335)"/>
<path d="M0 0 C0 0.33 0 0.66 0 1 C-0.65226563 1.15855469 -1.30453125 1.31710937 -1.9765625 1.48046875 C-7.86138187 3.05148985 -11.62920943 4.74423023 -16 9 C-15.76774367 5.51615511 -15.62008825 3.6000854 -13.0625 1.125 C-8.69633318 -0.47889802 -4.60103879 -0.24121951 0 0 Z " fill="#E93861" transform="translate(230,314)"/>
<path d="M0 0 C4.9240432 4.7652031 9.44259642 9.88657333 14 15 C13.67 15.66 13.34 16.32 13 17 C12.54109375 16.52949219 12.0821875 16.05898438 11.609375 15.57421875 C7.82764995 11.70185769 7.82764995 11.70185769 3.625 8.3125 C1.57964478 6.66048232 1.39904683 5.5538997 1 3 C0.67 2.01 0.34 1.02 0 0 Z " fill="#B22FA2" transform="translate(446,631)"/>
<path d="M0 0 C0.66 0 1.32 0 2 0 C1.56367091 6.88940671 0.91610155 13.35751464 -1 20 C-1.33 20 -1.66 20 -2 20 C-2.95756617 15.11641254 -2.97807956 12.50562567 -1 8 C-0.5411342 5.3365833 -0.27372299 2.69160937 0 0 Z " fill="#C62E6F" transform="translate(477,397)"/>
<path d="M0 0 C0.99 0.33 1.98 0.66 3 1 C4.23828125 3.58203125 4.23828125 3.58203125 5.3125 6.8125 C5.86357422 8.39998047 5.86357422 8.39998047 6.42578125 10.01953125 C7 13 7 13 6.10546875 15.38671875 C5.74066406 15.91910156 5.37585938 16.45148438 5 17 C4.16301614 14.54285453 3.33027576 12.08441143 2.5 9.625 C2.26152344 8.92632812 2.02304687 8.22765625 1.77734375 7.5078125 C0 2.2265625 0 2.2265625 0 0 Z " fill="#9B6014" transform="translate(504,309)"/>
<path d="M0 0 C2.375 0.25 2.375 0.25 5 1 C6.125 3 6.125 3 7 5 C7.99 5.33 8.98 5.66 10 6 C10.33 7.98 10.66 9.96 11 12 C6.43951988 8.38748484 2.98334854 5.01202555 0 0 Z " fill="#89298A" transform="translate(335,712)"/>
<path d="M0 0 C0.66 0 1.32 0 2 0 C4.30844801 6.34823202 4.19818283 12.29481414 4 19 C1.73830234 15.31286264 1.36051434 11.460444 0.875 7.25 C0.78863281 6.55261719 0.70226562 5.85523438 0.61328125 5.13671875 C0.40228154 3.42527668 0.20024499 1.71273371 0 0 Z " fill="#866619" transform="translate(625,582)"/>
<path d="M0 0 C3.35741626 0.59953862 5.53389454 1.61893266 8 4 C8.75 6.6875 8.75 6.6875 9 9 C9.66 9 10.32 9 11 9 C11 10.65 11 12.3 11 14 C10.484375 13.34 9.96875 12.68 9.4375 12 C6.84274087 8.8064503 4.13386893 5.73785351 1.390625 2.671875 C0 1 0 1 0 0 Z " fill="#8D236F" transform="translate(240,547)"/>
<path d="M0 0 C0.33 1.32 0.66 2.64 1 4 C-0.8125 5.5625 -0.8125 5.5625 -3 7 C-3.99 6.67 -4.98 6.34 -6 6 C-6 4.33333333 -6 2.66666667 -6 1 C-4 0 -4 0 0 0 Z " fill="#E3B52D" transform="translate(752,514)"/>
<path d="M0 0 C0.66 0.66 1.32 1.32 2 2 C-2.9221313 4.63365987 -7.57903298 6.64475824 -13 8 C-13 7.34 -13 6.68 -13 6 C-11.35 5.67 -9.7 5.34 -8 5 C-8 4.34 -8 3.68 -8 3 C-5.36 2.01 -2.72 1.02 0 0 Z " fill="#EBA623" transform="translate(625,330)"/>
<path d="M0 0 C0.33 0 0.66 0 1 0 C1.3125 2.6875 1.3125 2.6875 1 6 C-1.5 8.875 -1.5 8.875 -4 11 C-4.66 10.34 -5.32 9.68 -6 9 C-5.02501855 7.4972763 -4.04490611 5.99788037 -3.0625 4.5 C-2.51722656 3.6646875 -1.97195313 2.829375 -1.41015625 1.96875 C-0.94480469 1.3190625 -0.47945313 0.669375 0 0 Z " fill="#BA2E25" transform="translate(470,132)"/>
<path d="M0 0 C4.12172083 3.76843047 7.63068221 7.88904305 10 13 C9.67 13.66 9.34 14.32 9 15 C7.99406757 13.8803014 6.9954151 12.7540588 6 11.625 C5.1646875 10.68527344 5.1646875 10.68527344 4.3125 9.7265625 C3 8 3 8 3 6 C2.34 5.67 1.68 5.34 1 5 C0.375 2.4375 0.375 2.4375 0 0 Z " fill="#D9311F" transform="translate(626,90)"/>
<path d="M0 0 C-1.11328125 1.48828125 -1.11328125 1.48828125 -3 3 C-5.91796875 3.29296875 -5.91796875 3.29296875 -9.1875 3.1875 C-10.27417969 3.16042969 -11.36085937 3.13335938 -12.48046875 3.10546875 C-13.31191406 3.07066406 -14.14335937 3.03585937 -15 3 C-14.67 2.34 -14.34 1.68 -14 1 C-11.6015625 0.33203125 -11.6015625 0.33203125 -8.625 -0.1875 C-7.64789063 -0.36667969 -6.67078125 -0.54585937 -5.6640625 -0.73046875 C-3 -1 -3 -1 0 0 Z " fill="#D043D8" transform="translate(201,742)"/>
<path d="M0 0 C6.78082192 5.42465753 6.78082192 5.42465753 9 9 C9 9.66 9 10.32 9 11 C8.34 11 7.68 11 7 11 C7 10.34 7 9.68 7 9 C6.401875 8.731875 5.80375 8.46375 5.1875 8.1875 C2.95762543 6.97699666 1.54509308 6.008621 0 4 C0 2.68 0 1.36 0 0 Z " fill="#DF3026" transform="translate(617,79)"/>
<path d="M0 0 C0.99 0.33 1.98 0.66 3 1 C2.67 2.98 2.34 4.96 2 7 C1.01 7.33 0.02 7.66 -1 8 C-1.33 8.99 -1.66 9.98 -2 11 C-2.66 10.67 -3.32 10.34 -4 10 C-2.68 6.7 -1.36 3.4 0 0 Z " fill="#AF2865" transform="translate(329,401)"/>
<path d="M0 0 C0.66 0.33 1.32 0.66 2 1 C1.01 4.96 0.02 8.92 -1 13 C-1.66 13 -2.32 13 -3 13 C-2.88490339 11.58249437 -2.75746342 10.16598831 -2.625 8.75 C-2.55539062 7.96109375 -2.48578125 7.1721875 -2.4140625 6.359375 C-1.98492887 3.914123 -1.21399362 2.15163097 0 0 Z " fill="#BE2F24" transform="translate(459,149)"/>
<path d="M0 0 C0 0.99 0 1.98 0 3 C-0.639375 3.268125 -1.27875 3.53625 -1.9375 3.8125 C-4.33131686 4.88667752 -4.33131686 4.88667752 -5 8 C-7.0625 8.6875 -7.0625 8.6875 -9 9 C-7.55536047 5.62917442 -5.75336875 3.41962708 -3 1 C-2.01 0.67 -1.02 0.34 0 0 Z " fill="#C32B25" transform="translate(485,118)"/>
<path d="M0 0 C0.33 0 0.66 0 1 0 C1.32374517 5.50366792 1.53286034 9.43672206 -2 14 C-3.61645849 10.76708301 -2.67792481 7.43029955 -2 4 C-0.9375 1.5 -0.9375 1.5 0 0 Z " fill="#CA3326" transform="translate(543,99)"/>
<path d="M0 0 C3.26941682 0.94641013 4.66822278 1.41184947 6.375 4.4375 C7 7 7 7 6 10 C4.99421411 8.71283353 3.99553202 7.42011342 3 6.125 C2.443125 5.40570312 1.88625 4.68640625 1.3125 3.9453125 C0 2 0 2 0 0 Z " fill="#8D2C8A" transform="translate(318,688)"/>
<path d="M0 0 C0.33 0 0.66 0 1 0 C2.33257403 12.66970387 2.33257403 12.66970387 1 18 C0.34 17.67 -0.32 17.34 -1 17 C-0.67 11.39 -0.34 5.78 0 0 Z " fill="#856217" transform="translate(634,395)"/>
<path d="M0 0 C3.1875 0.3125 3.1875 0.3125 6 1 C6 1.66 6 2.32 6 3 C8.97 3.495 8.97 3.495 12 4 C11.67 4.66 11.34 5.32 11 6 C6.38 5.01 1.76 4.02 -3 3 C-2.01 2.01 -1.02 1.02 0 0 Z " fill="#E33461" transform="translate(276,314)"/>
<path d="M0 0 C5.40960555 0.37741434 7.45518503 1.98876201 11 6 C12.1446875 7.1446875 12.1446875 7.1446875 13.3125 8.3125 C13.869375 8.869375 14.42625 9.42625 15 10 C9.67568021 7.92943119 5.94896479 6.21222911 2 2 C1.34 1.34 0.68 0.68 0 0 Z " fill="#D61B22" transform="translate(550,23)"/>
<path d="M0 0 C0.33 0 0.66 0 1 0 C1.10957031 0.59167969 1.21914063 1.18335938 1.33203125 1.79296875 C2.27346676 6.48483841 3.4059272 9.92359989 6 14 C5.67 14.66 5.34 15.32 5 16 C1.29700283 13.05659199 -0.32829377 10.95575837 -0.875 6.3125 C-1.18049491 2.36098981 -1.18049491 2.36098981 0 0 Z " fill="#DB49E3" transform="translate(60,722)"/>
<path d="M0 0 C2.475 0.495 2.475 0.495 5 1 C5.66666667 4.33333333 6.33333333 7.66666667 7 11 C5.5 9.625 5.5 9.625 4 8 C4 7.34 4 6.68 4 6 C3.34 6 2.68 6 2 6 C2 5.01 2 4.02 2 3 C1.34 2.67 0.68 2.34 0 2 C0 1.34 0 0.68 0 0 Z " fill="#82217D" transform="translate(306,669)"/>
<path d="M0 0 C0.66 0.33 1.32 0.66 2 1 C1.34 3.97 0.68 6.94 0 10 C-0.66 10 -1.32 10 -2 10 C-2 11.32 -2 12.64 -2 14 C-2.66 14 -3.32 14 -4 14 C-3.52188823 12.22888156 -3.0424722 10.45811517 -2.5625 8.6875 C-2.29566406 7.70136719 -2.02882813 6.71523438 -1.75390625 5.69921875 C-1.21920575 3.78482474 -0.62855462 1.88566385 0 0 Z " fill="#97711C" transform="translate(626,447)"/>
<path d="M0 0 C4.15346337 1.84113608 5.79679543 3.98702026 8 8 C8.25 10.875 8.25 10.875 8 13 C5.81302498 10.20375042 4.00847187 7.36692128 2.3125 4.25 C1.65701172 3.05117188 1.65701172 3.05117188 0.98828125 1.828125 C0.49908203 0.92320312 0.49908203 0.92320312 0 0 Z " fill="#961C40" transform="translate(321,340)"/>
<path d="M0 0 C0.99 0 1.98 0 3 0 C2.67 5.61 2.34 11.22 2 17 C-0.11126943 12.77746115 -0.2171997 10.85998477 -0.125 6.25 C-0.09792969 4.49429688 -0.09792969 4.49429688 -0.0703125 2.703125 C-0.04710937 1.81109375 -0.02390625 0.9190625 0 0 Z " fill="#821B16" transform="translate(450,180)"/>
<path d="M0 0 C2.32509781 2.13802098 3.82167236 4.18598137 5.25 7 C5.60578125 7.680625 5.9615625 8.36125 6.328125 9.0625 C7 11 7 11 6 14 C4.98915735 12.42356682 3.99169489 10.8385483 3 9.25 C2.443125 8.36828125 1.88625 7.4865625 1.3125 6.578125 C0 4 0 4 0 0 Z " fill="#D4321F" transform="translate(636,105)"/>
<path d="M0 0 C2.875 0.6875 2.875 0.6875 6 2 C7.64407322 4.71629488 8.13421594 6.17233506 7.625 9.3125 C7.41875 9.869375 7.2125 10.42625 7 11 C6.05598958 9.2421875 5.11197917 7.484375 4.16796875 5.7265625 C2.95236507 3.69497635 2.95236507 3.69497635 0 2 C0 1.34 0 0.68 0 0 Z " fill="#D344CC" transform="translate(504,671)"/>
<path d="M0 0 C2.39763185 2.39763185 2.34280586 3.33273498 2.625 6.625 C2.69976562 7.44226563 2.77453125 8.25953125 2.8515625 9.1015625 C2.92503906 10.04128906 2.92503906 10.04128906 3 11 C2.01 10.67 1.02 10.34 0 10 C-0.73046875 7.93359375 -0.73046875 7.93359375 -1.1875 5.4375 C-1.34605469 4.61121094 -1.50460937 3.78492188 -1.66796875 2.93359375 C-1.83232422 1.97646484 -1.83232422 1.97646484 -2 1 C-1.34 0.67 -0.68 0.34 0 0 Z " fill="#A15C13" transform="translate(491,273)"/>
<path d="M0 0 C1.485 0.99 1.485 0.99 3 2 C3 2.66 3 3.32 3 4 C3.99 4.33 4.98 4.66 6 5 C7.1875 8.0625 7.1875 8.0625 8 11 C5.00675737 9.9024777 4.15389099 9.32317108 2.75 6.375 C2.5025 5.59125 2.255 4.8075 2 4 C1.34 4 0.68 4 0 4 C0 2.68 0 1.36 0 0 Z " fill="#D5323F" transform="translate(445,259)"/>
<path d="M0 0 C5.61 0.33 11.22 0.66 17 1 C13.77252945 3.15164703 12.79494361 3.27245079 9.0625 3.25 C8.20785156 3.25515625 7.35320312 3.2603125 6.47265625 3.265625 C3.88025433 2.98713633 2.23485766 2.30669172 0 1 C0 0.67 0 0.34 0 0 Z " fill="#FD4661" transform="translate(289,198)"/>
<path d="M0 0 C1 3 1 3 -0.0625 6.0625 C-2.38792283 9.58814107 -3.95845511 10.10187891 -8 11 C-8 9 -8 9 -5.6875 6.625 C-4.800625 5.75875 -3.91375 4.8925 -3 4 C-1.97186389 2.68824014 -0.95915568 1.3630107 0 0 Z " fill="#A9281B" transform="translate(528,126)"/>
<path d="M0 0 C2.85793316 2.85793316 2.40799941 5.14665584 2.625 9.125 C2.69976563 10.40632813 2.77453125 11.68765625 2.8515625 13.0078125 C2.92503906 14.48894531 2.92503906 14.48894531 3 16 C2.67 16 2.34 16 2 16 C2 14.35 2 12.7 2 11 C1.34 11 0.68 11 0 11 C0 7.37 0 3.74 0 0 Z " fill="#FA393F" transform="translate(549,34)"/>
<path d="M0 0 C4 1 4 1 5.30078125 2.48828125 C5.63464844 3.09027344 5.96851563 3.69226563 6.3125 4.3125 C6.65925781 4.90675781 7.00601563 5.50101563 7.36328125 6.11328125 C8 8 8 8 7 12 C3.535 6.06 3.535 6.06 0 0 Z " fill="#A1771A" transform="translate(611,552)"/>
<path d="M0 0 C0.33 0 0.66 0 1 0 C1 6.6 1 13.2 1 20 C0.01 20.33 -0.98 20.66 -2 21 C-1.01 10.605 -1.01 10.605 0 0 Z " fill="#FA4DA0" transform="translate(335,376)"/>
<path d="M0 0 C2.41685712 4.22949995 3.34833144 7.12335991 3 12 C1 9 1 9 -0.5 5.9375 C-1.82567342 2.96887524 -1.82567342 2.96887524 -4 1 C-2 0 -2 0 0 0 Z " fill="#9C5113" transform="translate(496,284)"/>
<path d="M0 0 C0.66666667 1.33333333 1.33333333 2.66666667 2 4 C2.391875 4.66 2.78375 5.32 3.1875 6 C4.17413108 8.42863035 3.86626039 9.57447091 3 12 C-1.06153846 6.83076923 -1.06153846 6.83076923 -0.75 2.625 C-0.5025 1.75875 -0.255 0.8925 0 0 Z " fill="#CB389B" transform="translate(380,520)"/>
<path d="M0 0 C0.33 0.66 0.66 1.32 1 2 C-0.25 5.5625 -0.25 5.5625 -2 9 C-2.99 9.33 -3.98 9.66 -5 10 C-4.67 8.02 -4.34 6.04 -4 4 C-3.01 4 -2.02 4 -1 4 C-0.67 2.68 -0.34 1.36 0 0 Z " fill="#CC3128" transform="translate(549,89)"/>
<path d="M0 0 C-0.33 4.95 -0.66 9.9 -1 15 C-1.33 15 -1.66 15 -2 15 C-2.33 10.38 -2.66 5.76 -3 1 C-1 0 -1 0 0 0 Z " fill="#C9982A" transform="translate(646,617)"/>
<path d="M0 0 C2.37948772 0.17625835 3.70225849 0.69719773 5.37890625 2.40234375 C6.62115486 3.90649092 7.81376056 5.45129851 9 7 C8.01 7.495 8.01 7.495 7 8 C6.566875 7.54625 6.13375 7.0925 5.6875 6.625 C3.89201658 4.79975666 3.89201658 4.79975666 1 3 C0.67 2.01 0.34 1.02 0 0 Z " fill="#A47D23" transform="translate(603,544)"/>
<path d="M0 0 C2.625 -0.1875 2.625 -0.1875 5 0 C2.20283196 3.29078593 -1.19528578 5.06305458 -5 7 C-5.66 6.67 -6.32 6.34 -7 6 C-6.21625 5.566875 -5.4325 5.13375 -4.625 4.6875 C-1.78301625 3.10779753 -1.78301625 3.10779753 0 0 Z " fill="#CB348D" transform="translate(410,501)"/>
<path d="M0 0 C0 3.6860549 -0.68858396 5.14925356 -3 8 C-6.1875 8.3125 -6.1875 8.3125 -9 8 C-6.17493137 5.0702992 -3.21203935 2.49825283 0 0 Z " fill="#B38324" transform="translate(604,486)"/>
<path d="M0 0 C0.99 0 1.98 0 3 0 C2.34 3.3 1.68 6.6 1 10 C0.34 10 -0.32 10 -1 10 C-0.67 6.7 -0.34 3.4 0 0 Z " fill="#A37A1E" transform="translate(629,433)"/>
<path d="M0 0 C2.39763185 2.39763185 2.34280586 3.33273498 2.625 6.625 C2.69976563 7.44226563 2.77453125 8.25953125 2.8515625 9.1015625 C2.90054688 9.72804688 2.94953125 10.35453125 3 11 C0.97144841 8.97144841 -0.00835839 7.66980434 -1 5 C-0.625 2.25 -0.625 2.25 0 0 Z " fill="#D8A62E" transform="translate(642,386)"/>
<path d="M0 0 C2 2 2 2 2.1953125 4.3828125 C2.17210937 5.28773438 2.14890625 6.19265625 2.125 7.125 C2.10695312 8.03507812 2.08890625 8.94515625 2.0703125 9.8828125 C2.03550781 10.93082031 2.03550781 10.93082031 2 12 C1.01 11.67 0.02 11.34 -1 11 C-0.67 7.37 -0.34 3.74 0 0 Z " fill="#A3162B" transform="translate(57,250)"/>
<path d="M0 0 C2 1 2 1 3.125 3.6875 C3.98889074 6.9579435 4.16013991 9.63706182 4 13 C0.25474201 9.25474201 0.31090051 5.01729091 0 0 Z " fill="#AD389E" transform="translate(511,676)"/>
<path d="M0 0 C0.99 0 1.98 0 3 0 C3.99 2.97 4.98 5.94 6 9 C5.34 8.67 4.68 8.34 4 8 C4 7.34 4 6.68 4 6 C3.01 6 2.02 6 1 6 C0.67 4.02 0.34 2.04 0 0 Z " fill="#C83AAA" transform="translate(251,558)"/>
<path d="M0 0 C0.33 0.66 0.66 1.32 1 2 C1.66 2.33 2.32 2.66 3 3 C2.01 3.495 2.01 3.495 1 4 C0.26924352 6.3140622 -0.40138258 8.64828869 -1 11 C-1.33 11 -1.66 11 -2 11 C-3.35384615 4.6 -3.35384615 4.6 -1.5625 1.5625 C-1.046875 1.046875 -0.53125 0.53125 0 0 Z " fill="#CB4E1B" transform="translate(691,252)"/>
<path d="M0 0 C2.49415272 0.99766109 3.78740335 1.68616685 5.3125 3.9375 C6 6 6 6 5 9 C0.57142857 3.85714286 0.57142857 3.85714286 0 0 Z " fill="#A13510" transform="translate(468,238)"/>
<path d="M0 0 C4.41889613 1.35021826 6.34345343 3.26115668 9 7 C6.75 6.875 6.75 6.875 4 6 C1.6875 2.9375 1.6875 2.9375 0 0 Z " fill="#E4394A" transform="translate(416,232)"/>
<path d="M0 0 C0.66 0 1.32 0 2 0 C6 6.75 6 6.75 6 9 C3 8 3 8 1.3125 5.0625 C0 2 0 2 0 0 Z " fill="#8B206F" transform="translate(253,564)"/>
<path d="M0 0 C0.33 0.99 0.66 1.98 1 3 C-0.8125 5 -0.8125 5 -3 7 C-3.99 7 -4.98 7 -6 7 C-6 6.34 -6 5.68 -6 5 C-4.04072937 3.2856382 -2.04119788 1.61594832 0 0 Z " fill="#AE841F" transform="translate(611,479)"/>
<path d="M0 0 C3 1 3 1 4.25 2.8125 C5.11637742 5.33943414 4.88492145 6.52221994 4 9 C0 2.25 0 2.25 0 0 Z " fill="#76216C" transform="translate(293,645)"/>
<path d="M0 0 C1.60080151 4.00200378 0.29279692 7.04556236 -1 11 C-1.33 11 -1.66 11 -2 11 C-3.35384615 4.6 -3.35384615 4.6 -1.5625 1.5625 C-1.046875 1.046875 -0.53125 0.53125 0 0 Z " fill="#D09E2A" transform="translate(653,578)"/>
<path d="M0 0 C-0.99 2.97 -1.98 5.94 -3 9 C-3.33 9 -3.66 9 -4 9 C-4 6.36 -4 3.72 -4 1 C-2 0 -2 0 0 0 Z " fill="#D8A62D" transform="translate(659,566)"/>
<path d="M0 0 C2.25 0.25 2.25 0.25 4 1 C3.01 2.485 3.01 2.485 2 4 C-1.125 4.1875 -1.125 4.1875 -4 4 C-2.25 1.9375 -2.25 1.9375 0 0 Z " fill="#C23177" transform="translate(313,424)"/>
<path d="M0 0 C0.66 0 1.32 0 2 0 C2 0.66 2 1.32 2 2 C2.99 2.33 3.98 2.66 5 3 C4.67 3.99 4.34 4.98 4 6 C3.01 6 2.02 6 1 6 C0.67 4.02 0.34 2.04 0 0 Z " fill="#B52A5A" transform="translate(329,353)"/>
<path d="M0 0 C2.97 0.495 2.97 0.495 6 1 C6 2.65 6 4.3 6 6 C3.37812506 4.95125002 2.20628639 4.35068687 0.75 1.875 C0.5025 1.25625 0.255 0.6375 0 0 Z " fill="#B32654" transform="translate(315,334)"/>
<path d="M0 0 C0.33 0 0.66 0 1 0 C1.33 3.63 1.66 7.26 2 11 C1.34 11 0.68 11 0 11 C-1.05404945 7.01803543 -0.84098656 4.01804691 0 0 Z " fill="#D13555" transform="translate(476,324)"/>
<path d="M0 0 C0.66 0 1.32 0 2 0 C3.42258812 3.82320557 4.24042276 6.91281305 4 11 C0.85041169 7.57653445 0.43820891 4.55737263 0 0 Z " fill="#D0751F" transform="translate(485,263)"/>
<path d="M0 0 C0.66 0.33 1.32 0.66 2 1 C0.63016497 4.16115776 0.0109362 4.9927092 -3 7 C-3.99 6.67 -4.98 6.34 -6 6 C-4 4 -2 2 0 0 Z " fill="#A7310F" transform="translate(673,207)"/>
<path d="M0 0 C0.33 0.66 0.66 1.32 1 2 C-0.98 3.32 -2.96 4.64 -5 6 C-5.66 5.67 -6.32 5.34 -7 5 C-4.63707344 2.47411298 -3.33537489 1.11179163 0 0 Z " fill="#B735BC" transform="translate(207,737)"/>
<path d="M0 0 C1.32 0 2.64 0 4 0 C4 2.64 4 5.28 4 8 C1.84622436 5.37801226 0.59927826 3.35595828 0 0 Z " fill="#8B2777" transform="translate(261,579)"/>
<path d="M0 0 C0.66 0 1.32 0 2 0 C3.42944945 2.35438733 4.08661261 3.48032433 3.625 6.25 C3.41875 6.8275 3.2125 7.405 3 8 C2.67 7.01 2.34 6.02 2 5 C1.34 5 0.68 5 0 5 C0 3.35 0 1.7 0 0 Z " fill="#9C600D" transform="translate(499,296)"/>
<path d="M0 0 C0.99 0 1.98 0 3 0 C3 1.65 3 3.3 3 5 C1.02 5.99 1.02 5.99 -1 7 C-0.67 4.69 -0.34 2.38 0 0 Z " fill="#D15312" transform="translate(678,282)"/>
<path d="M0 0 C3.83902629 2.33679861 6.20953589 3.86281109 8 8 C6.6589523 7.24266726 5.32730219 6.46867264 4 5.6875 C2.88625 5.04361328 2.88625 5.04361328 1.75 4.38671875 C1.1725 3.92910156 0.595 3.47148437 0 3 C0 2.01 0 1.02 0 0 Z " fill="#DB303C" transform="translate(430,243)"/>
<path d="M0 0 C0.99 0.33 1.98 0.66 3 1 C0.525 5.455 0.525 5.455 -2 10 C-3 8 -3 8 -2.44140625 6.0546875 C-2.15136719 5.33539063 -1.86132812 4.61609375 -1.5625 3.875 C-1.27503906 3.15054688 -0.98757813 2.42609375 -0.69140625 1.6796875 C-0.46324219 1.12539062 -0.23507812 0.57109375 0 0 Z " fill="#FB6838" transform="translate(685,191)"/>
<path d="M0 0 C0.33 0 0.66 0 1 0 C1.125 6.75 1.125 6.75 0 9 C-0.66 9 -1.32 9 -2 9 C-2.33 8.01 -2.66 7.02 -3 6 C-2.34 6 -1.68 6 -1 6 C-1.0309375 4.7934375 -1.0309375 4.7934375 -1.0625 3.5625 C-1 1 -1 1 0 0 Z " fill="#901D17" transform="translate(455,158)"/>
<path d="M0 0 C0 0.99 0 1.98 0 3 C-2.5 5.1875 -2.5 5.1875 -5 7 C-5.33 6.01 -5.66 5.02 -6 4 C-4.02 2.68 -2.04 1.36 0 0 Z " fill="#C83386" transform="translate(444,474)"/>
<path d="M0 0 C1 3 1 3 -0.4375 6.1875 C-1.2109375 7.5796875 -1.2109375 7.5796875 -2 9 C-2.33 9 -2.66 9 -3 9 C-3 7.02 -3 5.04 -3 3 C-2.01 2.67 -1.02 2.34 0 2 C0 1.34 0 0.68 0 0 Z " fill="#C53278" transform="translate(466,439)"/>
<path d="M0 0 C0.99 0 1.98 0 3 0 C1.52307692 4.67692308 1.52307692 4.67692308 -1.125 6.3125 C-2.053125 6.6528125 -2.053125 6.6528125 -3 7 C-2.01 4.69 -1.02 2.38 0 0 Z " fill="#AF2215" transform="translate(532,119)"/>
<path d="M0 0 C0.99 0 1.98 0 3 0 C3 1.32 3 2.64 3 4 C1.02 4 -0.96 4 -3 4 C-1.6875 2 -1.6875 2 0 0 Z " fill="#FC5343" transform="translate(489,115)"/>
<path d="M0 0 C1.65 0 3.3 0 5 0 C5 0.33 5 0.66 5 1 C3.35 1 1.7 1 0 1 C0 0.67 0 0.34 0 0 Z " fill="#F3C04F" transform="translate(724,526)"/>
<path d="M0 0 C3 1 3 1 3 1 Z " fill="#EBB359" transform="translate(597,342)"/>
<path d="M0 0 C2 1 2 1 2 1 Z " fill="#542A54" transform="translate(457,758)"/>
<path d="M0 0 C2 1 2 1 2 1 Z " fill="#7070E2" transform="translate(189,747)"/>
<path d="M0 0 C2 1 2 1 2 1 Z " fill="#E23FE2" transform="translate(298,660)"/>
<path d="M0 0 C2 1 2 1 2 1 Z " fill="#E23FA2" transform="translate(269,317)"/>
<path d="M0 0 C2 1 2 1 2 1 Z " fill="#E20000" transform="translate(685,277)"/>
<path d="M0 0 C2 1 2 1 2 1 Z " fill="#E20000" transform="translate(293,195)"/>
<path d="M0 0 C2 1 2 1 2 1 Z " fill="#E20000" transform="translate(200,194)"/>
<path d="" fill="#C50000" transform="translate(0,0)"/>
<path d="" fill="#C50000" transform="translate(0,0)"/>
<path d="" fill="#C53100" transform="translate(0,0)"/>
<path d="" fill="#C500C5" transform="translate(0,0)"/>
<path d="" fill="#C500C5" transform="translate(0,0)"/>
<path d="" fill="#C500C5" transform="translate(0,0)"/>
<path d="" fill="#C562C5" transform="translate(0,0)"/>
<path d="" fill="#C562C5" transform="translate(0,0)"/>
<path d="" fill="#C500C5" transform="translate(0,0)"/>
<path d="" fill="#C562C5" transform="translate(0,0)"/>
<path d="" fill="#C500C5" transform="translate(0,0)"/>
<path d="" fill="#C500C5" transform="translate(0,0)"/>
<path d="" fill="#C500C5" transform="translate(0,0)"/>
<path d="" fill="#C500C5" transform="translate(0,0)"/>
<path d="" fill="#C500C5" transform="translate(0,0)"/>
<path d="" fill="#C500C5" transform="translate(0,0)"/>
<path d="" fill="#C500C5" transform="translate(0,0)"/>
<path d="" fill="#C500C5" transform="translate(0,0)"/>
<path d="" fill="#C500C5" transform="translate(0,0)"/>
<path d="" fill="#C500C5" transform="translate(0,0)"/>
<path d="" fill="#C500C5" transform="translate(0,0)"/>
<path d="" fill="#C500C5" transform="translate(0,0)"/>
<path d="" fill="#C562C5" transform="translate(0,0)"/>
<path d="" fill="#C500C5" transform="translate(0,0)"/>
<path d="" fill="#C5C500" transform="translate(0,0)"/>
<path d="" fill="#C500C5" transform="translate(0,0)"/>
<path d="" fill="#C5C500" transform="translate(0,0)"/>
<path d="" fill="#C5C500" transform="translate(0,0)"/>
<path d="" fill="#C5C500" transform="translate(0,0)"/>
<path d="" fill="#C5C500" transform="translate(0,0)"/>
<path d="" fill="#C5C500" transform="translate(0,0)"/>
<path d="" fill="#C5C500" transform="translate(0,0)"/>
<path d="" fill="#C5C500" transform="translate(0,0)"/>
<path d="" fill="#C56200" transform="translate(0,0)"/>
<path d="" fill="#C5C500" transform="translate(0,0)"/>
<path d="" fill="#C500C5" transform="translate(0,0)"/>
<path d="" fill="#C5C562" transform="translate(0,0)"/>
<path d="" fill="#C500C5" transform="translate(0,0)"/>
<path d="" fill="#C5C562" transform="translate(0,0)"/>
<path d="" fill="#C5C500" transform="translate(0,0)"/>
<path d="" fill="#C56262" transform="translate(0,0)"/>
<path d="" fill="#C500C5" transform="translate(0,0)"/>
<path d="" fill="#C500C5" transform="translate(0,0)"/>
<path d="" fill="#C56262" transform="translate(0,0)"/>
<path d="" fill="#C500C5" transform="translate(0,0)"/>
<path d="" fill="#C500C5" transform="translate(0,0)"/>
<path d="" fill="#C56262" transform="translate(0,0)"/>
<path d="" fill="#C5C500" transform="translate(0,0)"/>
<path d="" fill="#C500C5" transform="translate(0,0)"/>
<path d="" fill="#C500C5" transform="translate(0,0)"/>
<path d="" fill="#C56200" transform="translate(0,0)"/>
<path d="" fill="#C56262" transform="translate(0,0)"/>
<path d="" fill="#C500C5" transform="translate(0,0)"/>
<path d="" fill="#C50000" transform="translate(0,0)"/>
<path d="" fill="#C500C5" transform="translate(0,0)"/>
<path d="" fill="#C500C5" transform="translate(0,0)"/>
<path d="" fill="#C500C5" transform="translate(0,0)"/>
<path d="" fill="#C56200" transform="translate(0,0)"/>
<path d="" fill="#C5C500" transform="translate(0,0)"/>
<path d="" fill="#C56200" transform="translate(0,0)"/>
<path d="" fill="#C50000" transform="translate(0,0)"/>
<path d="" fill="#C50000" transform="translate(0,0)"/>
<path d="" fill="#C56200" transform="translate(0,0)"/>
<path d="" fill="#C50000" transform="translate(0,0)"/>
<path d="" fill="#C50000" transform="translate(0,0)"/>
<path d="" fill="#C50000" transform="translate(0,0)"/>
<path d="" fill="#C50000" transform="translate(0,0)"/>
<path d="" fill="#C50000" transform="translate(0,0)"/>
<path d="" fill="#C50000" transform="translate(0,0)"/>
<path d="" fill="#C50000" transform="translate(0,0)"/>
<path d="" fill="#C56262" transform="translate(0,0)"/>
<path d="" fill="#C50000" transform="translate(0,0)"/>
<path d="" fill="#C50000" transform="translate(0,0)"/>
<path d="" fill="#C50000" transform="translate(0,0)"/>
<path d="" fill="#C50000" transform="translate(0,0)"/>
<path d="" fill="#C50000" transform="translate(0,0)"/>
<path d="" fill="#C50000" transform="translate(0,0)"/>
<path d="" fill="#C56200" transform="translate(0,0)"/>
<path d="" fill="#C50000" transform="translate(0,0)"/>
<path d="" fill="#C50000" transform="translate(0,0)"/>
<path d="" fill="#C50000" transform="translate(0,0)"/>
<path d="" fill="#C50000" transform="translate(0,0)"/>
</svg>
